<?xml version="1.0" encoding="UTF-8"?>
<svg width="598px" height="345px" viewBox="0 0 598 345" version="1.1" xmlns="http://www.w3.org/2000/svg" xmlns:xlink="http://www.w3.org/1999/xlink">
    <!-- Generator: Sketch 57.1 (83088) - https://sketch.com -->
    <title>home_graphic_main</title>
    <desc>Created with Sketch.</desc>

    <style>
        svg g #clouds #Union {
                animation-name: cloudAnimation;
                animation-iteration-count: infinite;
                animation-timing-function: ease-in;
        }

        @keyframes cloudAnimation {
            0%   {transform: translate(0, 0)}
            25% {transform: translate(10px, -20px)}
            50% {transform: translate(20px, 10px)}
            75% {transform: translate(20px, -10px)}
            100%   {transform: translate(0, 0)}
        }

        .Cloud1 {
            animation-delay: 0s;
            animation-duration: 8s;       
        }

        .Cloud2 {
                animation-delay: 0s;
                animation-duration: 12s;   
        }

        .Cloud3 {
                animation-delay: 1s;
                animation-duration: 16s;   
        }


        #Flag1 {
            width: 10px;
            height:50px;
            animation: MoveFlag1 2s infinite linear;
        }

        #Flag2 {
            width: 50px;
            height: 50px;
            transform: translate(10px, 10px);
            animation: MoveFlag2 2s infinite linear;
        }


        @keyframes MoveFlag1 {
            0%   { width: 30px;}
            25%   { width: 10px;}
            50%   { width: 0px;}
            75%   { width: 15px;}
            100%   { width: 30px;}
        }

        @keyframes MoveFlag2 {
            0%   { width: 20px;  transform: translate(30px, 10px);}
            25%   { width: 30px; transform: translate(10px, 10px);}
            50%     { width: 15px; transform: translate(0px, 10px);}
            75%     { width: 0px; transform: translate(15px, 10px);}
            100%   { width:20px; transform: translate(30px, 10px);}
        }

        </style>




    <defs>
        <radialGradient cx="8.02716261%" cy="11.91468%" fx="8.02716261%" fy="11.91468%" r="9.48017047%" gradientTransform="translate(0.080272,0.119147),scale(0.846939,1.000000),translate(-0.080272,-0.119147)" id="radialGradient-1">
            <stop stop-color="#FDD835" offset="0%"></stop>
            <stop stop-color="#FCD633" offset="44.61%"></stop>
            <stop stop-color="#FBCD2C" offset="69.94%"></stop>
            <stop stop-color="#F8C020" offset="90.39%"></stop>
            <stop stop-color="#F6B618" offset="100%"></stop>
        </radialGradient>
        <radialGradient cx="50.0409567%" cy="50.0442718%" fx="50.0409567%" fy="50.0442718%" r="59.1393348%" gradientTransform="translate(0.500410,0.500443),scale(0.846360,1.000000),translate(-0.500410,-0.500443)" id="radialGradient-2">
            <stop stop-color="#FDD835" offset="0%"></stop>
            <stop stop-color="#FCD633" offset="44.61%"></stop>
            <stop stop-color="#FBCD2C" offset="69.94%"></stop>
            <stop stop-color="#F8C020" offset="90.39%"></stop>
            <stop stop-color="#F6B618" offset="100%"></stop>
        </radialGradient>
        <radialGradient cx="7.01949752%" cy="10.6322522%" fx="7.01949752%" fy="10.6322522%" r="8.93378099%" gradientTransform="translate(0.070195,0.106323),scale(0.823529,1.000000),translate(-0.070195,-0.106323)" id="radialGradient-3">
            <stop stop-color="#2ECC71" offset="47.02%"></stop>
            <stop stop-color="#28C266" offset="95.77%"></stop>
            <stop stop-color="#27C165" offset="100%"></stop>
        </radialGradient>
        <radialGradient cx="50.1645576%" cy="52.9696489%" fx="50.1645576%" fy="52.9696489%" r="64.2765446%" gradientTransform="translate(0.501646,0.529696),scale(0.817999,1.000000),translate(-0.501646,-0.529696)" id="radialGradient-4">
            <stop stop-color="#2ECC71" offset="47.02%"></stop>
            <stop stop-color="#28C266" offset="95.77%"></stop>
            <stop stop-color="#27C165" offset="100%"></stop>
        </radialGradient>
        <linearGradient x1="5.15971901%" y1="8.7775942%" x2="5.15971901%" y2="-0.017884058%" id="linearGradient-5">
            <stop stop-color="#3BE07E" offset="0%"></stop>
            <stop stop-color="#3ADF7D" offset="3.38869%"></stop>
            <stop stop-color="#31D174" offset="55.22%"></stop>
            <stop stop-color="#2ECC71" offset="100%"></stop>
        </linearGradient>
        <linearGradient x1="33.7054477%" y1="99.7058394%" x2="33.7054477%" y2="-0.203151613%" id="linearGradient-6">
            <stop stop-color="#3BE07E" offset="0%"></stop>
            <stop stop-color="#3ADF7D" offset="3.38869%"></stop>
            <stop stop-color="#31D174" offset="55.22%"></stop>
            <stop stop-color="#2ECC71" offset="100%"></stop>
        </linearGradient>
        <linearGradient x1="4.44191736%" y1="7.53301449%" x2="4.44191736%" y2="-3.72542029%" id="linearGradient-7">
            <stop stop-color="#2ECC71" offset="0%"></stop>
            <stop stop-color="#2AC66A" offset="39.69%"></stop>
            <stop stop-color="#27C165" offset="100%"></stop>
        </linearGradient>
        <linearGradient x1="28.9928935%" y1="100.317868%" x2="28.9928935%" y2="-49.6117601%" id="linearGradient-8">
            <stop stop-color="#2ECC71" offset="0%"></stop>
            <stop stop-color="#2AC66A" offset="39.69%"></stop>
            <stop stop-color="#27C165" offset="100%"></stop>
        </linearGradient>
        <radialGradient cx="2.0728325%" cy="3.65238936%" fx="2.0728325%" fy="3.65238936%" r="2.07473554%" id="radialGradient-9">
            <stop stop-color="#FFFFFF" offset="51.67%"></stop>
            <stop stop-color="#F7F7F7" offset="73.7%"></stop>
            <stop stop-color="#E6E7E8" offset="100%"></stop>
        </radialGradient>
        <radialGradient cx="50.0454401%" cy="50.2853056%" fx="50.0454401%" fy="50.2853056%" r="50.0913862%" id="radialGradient-10">
            <stop stop-color="#FFFFFF" offset="51.67%"></stop>
            <stop stop-color="#F7F7F7" offset="73.7%"></stop>
            <stop stop-color="#E6E7E8" offset="100%"></stop>
        </radialGradient>
        <radialGradient cx="2.06795868%" cy="3.65238936%" fx="2.06795868%" fy="3.65238936%" r="2.07473554%" id="radialGradient-11">
            <stop stop-color="#FFFFFF" offset="51.67%"></stop>
            <stop stop-color="#F7F7F7" offset="73.7%"></stop>
            <stop stop-color="#E6E7E8" offset="100%"></stop>
        </radialGradient>
        <radialGradient cx="49.927769%" cy="50.2853056%" fx="49.927769%" fy="50.2853056%" r="50.0913862%" id="radialGradient-12">
            <stop stop-color="#FFFFFF" offset="51.67%"></stop>
            <stop stop-color="#F7F7F7" offset="73.7%"></stop>
            <stop stop-color="#E6E7E8" offset="100%"></stop>
        </radialGradient>
    </defs>
    <g id="Page-1" stroke="none" stroke-width="1" fill="none" fill-rule="evenodd">
        <g id="home_graphic_main">
            <g id="clouds" transform="translate(9.000000, 50.000000)" fill="#DFE8F0" fill-rule="nonzero">
                <g class="CloudHolder"  transform="translate(98, 5)">
                <g id="Union" class="Cloud1">
                    <g id="path91_stroke-link" transform="translate(42.960000, 21.110000) scale(-1, 1) translate(-42.960000, -21.110000) translate(0.460000, 0.110000)">
                        <path d="M53.9514,12.0446 L53.2404,12.2834 L53.2404,12.2834 L53.9514,12.0446 Z M83.1766,32.2415 C83.1766,32.6557 83.5124,32.9915 83.9266,32.9915 C84.3409,32.9915 84.6766,32.6557 84.6766,32.2415 L83.1766,32.2415 Z M6.36491,24.0855 L6.66704,24.772 L6.66704,24.772 L6.36491,24.0855 Z M19.847,8.68023 C19.4328,8.68023 19.097,9.01602 19.097,9.43023 C19.097,9.84445 19.4328,10.18023 19.847,10.18023 L19.847,8.68023 Z M21.0638,9.49709 L21.1462,8.75163 L21.1462,8.75163 L21.0638,9.49709 Z M57.5409,41.9176 C57.9551,41.9176 58.2909,41.5818 58.2909,41.1676 C58.2909,40.7534 57.9551,40.4176 57.5409,40.4176 L57.5409,41.9176 Z M64.0116,40.4176 C63.5974,40.4176 63.2616,40.7534 63.2616,41.1676 C63.2616,41.5818 63.5974,41.9176 64.0116,41.9176 L64.0116,40.4176 Z M74.8801,41.9176 C75.2943,41.9176 75.6301,41.5818 75.6301,41.1676 C75.6301,40.7534 75.2943,40.4176 74.8801,40.4176 L74.8801,41.9176 Z M27.9944,5.71507 C28.3036,5.43942 28.3308,4.96532 28.0551,4.65615 C27.7794,4.34698 27.3054,4.31981 26.9962,4.59546 L27.9944,5.71507 Z M25.1202,7.78965 L24.5117,7.35126 L25.1202,7.78965 Z M31.7181,1.607046 C31.3367,1.768459 31.1583,2.20855 31.3197,2.59002 C31.4811,2.97149 31.9212,3.14988 32.3026,2.98847 L31.7181,1.607046 Z M9.79137,20.092 C9.79137,19.6778 9.45559,19.342 9.04137,19.342 C8.62716,19.342 8.29137,19.6778 8.29137,20.092 L9.79137,20.092 Z M54.6624,11.8059 C52.407,5.08851 45.9942,0.25 38.4426,0.25 L38.4426,1.75 C45.3413,1.75 51.1874,6.16883 53.2404,12.2834 L54.6624,11.8059 Z M66.081,22.0756 C66.081,17.4069 62.2479,13.6392 57.5409,13.6392 L57.5409,15.1392 C61.4385,15.1392 64.581,18.2542 64.581,22.0756 L66.081,22.0756 Z M74.8801,22.5653 L66.4753,22.5653 L66.4753,24.0653 L74.8801,24.0653 L74.8801,22.5653 Z M84.6766,32.2415 C84.6766,26.888 80.2811,22.5653 74.8801,22.5653 L74.8801,24.0653 C79.4717,24.0653 83.1766,27.7353 83.1766,32.2415 L84.6766,32.2415 Z M0.25,32.2415 C0.25,37.5949 4.64555,41.9176 10.04654,41.9176 L10.04654,40.4176 C5.45496,40.4176 1.75,36.7476 1.75,32.2415 L0.25,32.2415 Z M6.06278,23.3991 C2.64323,24.9041 0.25,28.2929 0.25,32.2415 L1.75,32.2415 C1.75,28.9177 3.76381,26.0498 6.66704,24.772 L6.06278,23.3991 Z M19.847,10.18023 C20.2374,10.17994 20.6022,10.20034 20.9813,10.24254 L21.1462,8.75163 C20.7265,8.7055 20.2793,8.68053 19.847,8.68023 L19.847,10.18023 Z M23.2996,41.9176 L57.5409,41.9176 L57.5409,40.4176 L23.2996,40.4176 L23.2996,41.9176 Z M64.0116,41.9176 L74.8801,41.9176 L74.8801,40.4176 L64.0116,40.4176 L64.0116,41.9176 Z M26.9962,4.59546 C26.0814,5.41255 25.2295,6.35681 24.5117,7.35126 L25.7287,8.22805 C26.3966,7.29904 27.1389,6.47634 27.9944,5.71507 L26.9962,4.59546 Z M38.4426,0.25 C36.0803,0.254114 33.7592,0.747099 31.7181,1.607046 L32.3026,2.98847 C34.2095,2.1779 36.2372,1.745886 38.4426,1.75 L38.4426,0.25 Z M23.2996,40.4176 L10.04654,40.4176 L10.04654,41.9176 L23.2996,41.9176 L23.2996,40.4176 Z M20.9813,10.24254 C22.7573,10.43893 24.6458,9.7312 25.7287,8.22805 L24.5117,7.35126 C23.7825,8.36341 22.4515,8.89597 21.1462,8.75163 L20.9813,10.24254 Z M64.581,22.0756 C64.581,23.0622 65.3331,24.0653 66.4753,24.0653 L66.4753,22.5653 C66.3858,22.5653 66.2959,22.5276 66.2172,22.4397 C66.1351,22.348 66.081,22.2159 66.081,22.0756 L64.581,22.0756 Z M6.66704,24.772 C8.44103,23.9912 9.79137,22.0717 9.79137,20.092 L8.29137,20.092 C8.29137,21.436 7.33093,22.8409 6.06278,23.3991 L6.66704,24.772 Z M53.2404,12.2834 C53.8489,14.0959 55.7837,15.1392 57.5409,15.1392 L57.5409,13.6392 C56.2666,13.6392 55.0187,12.8672 54.6624,11.8059 L53.2404,12.2834 Z" id="path91_stroke"></path>
                    </g>
                </g>
                </g>
                <g class="CloudHolder" transform="translate(445, 0)">
                <g id="Union" class="Cloud2">
                    <g id="path92_stroke-link" transform="translate(55.300000, 28.120000) scale(-1, 1) translate(-55.300000, -28.120000) translate(0.300000, 0.620000)">
                        <path d="M69.8837,15.471 L69.1719,15.7071 L69.8837,15.471 Z M74.536,18.4841 L74.536,17.7341 L74.5347,17.7341 L74.536,18.4841 Z M74.499,18.4841 L74.4977,17.7341 L74.4963,17.7341 L74.499,18.4841 Z M108.103,41.7961 C108.103,42.2103 108.439,42.5461 108.853,42.5461 C109.267,42.5461 109.603,42.2103 109.603,41.7961 L108.103,41.7961 Z M12.7658,54.2022 C13.18,54.2022 13.5158,53.8664 13.5158,53.4522 C13.5158,53.0379 13.18,52.7022 12.7658,52.7022 L12.7658,54.2022 Z M8.33566,30.9946 L8.05536,30.2989 L8.05536,30.2989 L8.33566,30.9946 Z M11.4643,26.3352 L10.71458,26.3568 L10.71458,26.3568 L11.4643,26.3352 Z M27.9017,12.209 L27.7762,12.9484 L27.7762,12.9484 L27.9017,12.209 Z M23.205,52.7022 C22.7908,52.7022 22.455,53.0379 22.455,53.4522 C22.455,53.8664 22.7908,54.2022 23.205,54.2022 L23.205,52.7022 Z M25.512,54.2022 C25.9262,54.2022 26.262,53.8664 26.262,53.4522 C26.262,53.0379 25.9262,52.7022 25.512,52.7022 L25.512,54.2022 Z M30.0024,52.7022 C29.5882,52.7022 29.2524,53.0379 29.2524,53.4522 C29.2524,53.8664 29.5882,54.2022 30.0024,54.2022 L30.0024,52.7022 Z M74.536,54.2022 C74.9502,54.2022 75.286,53.8664 75.286,53.4522 C75.286,53.0379 74.9502,52.7022 74.536,52.7022 L74.536,54.2022 Z M88.0073,52.7022 C87.5931,52.7022 87.2573,53.0379 87.2573,53.4522 C87.2573,53.8664 87.5931,54.2022 88.0073,54.2022 L88.0073,52.7022 Z M97.0871,54.2022 C97.5013,54.2022 97.8371,53.8664 97.8371,53.4522 C97.8371,53.0379 97.5013,52.7022 97.0871,52.7022 L97.0871,54.2022 Z M35.9595,6.98489 C36.2681,6.70862 36.2944,6.23447 36.0181,5.92585 C35.7418,5.61723 35.2677,5.59101 34.959,5.86728 L35.9595,6.98489 Z M31.9026,10.54558 L31.2766,10.13252 L31.2766,10.13252 L31.9026,10.54558 Z M41.0383,2.00437 C40.657,2.16633 40.4793,2.60668 40.6412,2.98792 C40.8032,3.36915 41.2436,3.54691 41.6248,3.38494 L41.0383,2.00437 Z M70.5956,15.2349 C67.7086,6.53024 59.4412,0.25 49.6972,0.25 L49.6972,1.75 C58.7832,1.75 66.4847,7.60502 69.1719,15.7071 L70.5956,15.2349 Z M74.5347,17.7341 L74.4977,17.7341 L74.5004,19.2341 L74.5374,19.2341 L74.5347,17.7341 Z M85.4177,28.5212 C85.4177,22.5571 80.5391,17.7341 74.536,17.7341 L74.536,19.2341 C79.7239,19.2341 83.9177,23.3987 83.9177,28.5212 L85.4177,28.5212 Z M97.0871,29.3901 L86.1625,29.3901 L86.1625,30.8901 L97.0871,30.8901 L97.0871,29.3901 Z M109.603,41.7961 C109.603,34.9378 103.993,29.3901 97.0871,29.3901 L97.0871,30.8901 C103.178,30.8901 108.103,35.7795 108.103,41.7961 L109.603,41.7961 Z M0.25,41.7961 C0.25,48.6544 5.86012,54.2022 12.7658,54.2022 L12.7658,52.7022 C6.67526,52.7022 1.75,47.8128 1.75,41.7961 L0.25,41.7961 Z M8.05536,30.2989 C3.48202,32.1416 0.25,36.5916 0.25,41.7961 L1.75,41.7961 C1.75,37.2309 4.58445,33.3146 8.61595,31.6902 L8.05536,30.2989 Z M12.214,26.3136 C12.2102,26.1847 12.2084,26.0607 12.2085,25.931 L10.70846,25.931 C10.70848,26.0716 10.71058,26.2171 10.71458,26.3568 L12.214,26.3136 Z M12.2085,25.931 C12.2085,18.6627 18.158,12.7585 25.512,12.7585 L25.512,11.2585 C17.3429,11.2585 10.70846,17.821 10.70846,25.931 L12.2085,25.931 Z M25.512,12.7585 C26.2944,12.7578 27.0301,12.8211 27.7762,12.9484 L28.0272,11.4695 C27.22,11.3332 26.3588,11.2592 25.512,11.2585 L25.512,12.7585 Z M23.205,54.2022 L25.512,54.2022 L25.512,52.7022 L23.205,52.7022 L23.205,54.2022 Z M30.0024,54.2022 L74.536,54.2022 L74.536,52.7022 L30.0024,52.7022 L30.0024,54.2022 Z M88.0073,54.2022 L97.0871,54.2022 L97.0871,52.7022 L88.0073,52.7022 L88.0073,54.2022 Z M34.959,5.86728 C33.5685,7.11411 32.3084,8.57168 31.2766,10.13252 L32.5286,10.95864 C33.5043,9.47717 34.6383,8.16558 35.9595,6.98489 L34.959,5.86728 Z M49.6972,0.25 C46.6481,0.254146 43.6728,0.888803 41.0383,2.00437 L41.6248,3.38494 C44.1248,2.31909 46.8056,1.745854 49.6972,1.75 L49.6972,0.25 Z M27.7762,12.9484 C29.5739,13.2534 31.4949,12.5253 32.5286,10.95864 L31.2766,10.13252 C30.5993,11.159 29.2925,11.6843 28.0272,11.4695 L27.7762,12.9484 Z M83.9177,28.5212 C83.9177,29.7078 84.8209,30.8901 86.1625,30.8901 L86.1625,29.3901 C85.8,29.3901 85.4177,29.0386 85.4177,28.5212 L83.9177,28.5212 Z M8.61595,31.6902 C10.71233,30.8456 12.2801,28.6132 12.214,26.3136 L10.71458,26.3568 C10.76155,27.989 9.60741,29.6736 8.05536,30.2989 L8.61595,31.6902 Z M69.1719,15.7071 C69.9117,17.938 72.3074,19.2419 74.5017,19.2341348 L74.4963,17.7341 C72.7876,17.7402 71.0844,16.7086 70.5956,15.2349 L69.1719,15.7071 Z" id="path92_stroke"></path>
                    </g>
                </g>
                </g>
                <g class="CloudHolder" transform="translate(0, 14)">
                <g id="Union" class="Cloud3">
                    <g id="path93_stroke-link" transform="translate(54.460000, 29.970000) scale(-1, 1) translate(-54.460000, -29.970000) translate(0.960000, 0.470000)">
                        <path d="M106.351,43.2494 C106.351,42.8352 106.015,42.4994 105.601,42.4994 C105.187,42.4994 104.851,42.8352 104.851,43.2494 L106.351,43.2494 Z M29.191,25.8071 L29.9203,25.9819 L29.191,25.8071 Z M44.1377,16.2991 L43.9898,17.0344 L44.1377,16.2991 Z M49.1803,13.8657 L48.493,13.5655 L49.1803,13.8657 Z M2.11925,50.5556 C2.31869,50.9187 2.77467,51.0513 3.13771,50.8518 C3.50074,50.6524 3.63336,50.1964 3.43391,49.8334 L2.11925,50.5556 Z M9.4502,55.5726 C9.07819,55.3904 8.62895,55.5443 8.44678,55.9163 C8.26461,56.2883 8.4185,56.7375 8.79051,56.9197 L9.4502,55.5726 Z M23.041,58.4684 C23.4552,58.4684 23.791,58.1326 23.791,57.7184 C23.791,57.3041 23.4552,56.9684 23.041,56.9684 L23.041,58.4684 Z M38.7016,56.9684 C38.2874,56.9684 37.9516,57.3041 37.9516,57.7184 C37.9516,58.1326 38.2874,58.4684 38.7016,58.4684 L38.7016,56.9684 Z M64.8028,58.4684 C65.217,58.4684 65.5528,58.1326 65.5528,57.7184 C65.5528,57.3041 65.217,56.9684 64.8028,56.9684 L64.8028,58.4684 Z M68.8629,56.9684 C68.4487,56.9684 68.1129,57.3041 68.1129,57.7184 C68.1129,58.1326 68.4487,58.4684 68.8629,58.4684 L68.8629,56.9684 Z M77.8192,3.77656 C78.1927,3.95559 78.6406,3.79791 78.8197,3.42438 C78.9987,3.05085 78.841,2.60292 78.4675,2.4239 L77.8192,3.77656 Z M89.5739,22.4141 C89.5739,22.8283 89.9097,23.1641 90.3239,23.1641 C90.7381,23.1641 91.0739,22.8283 91.0739,22.4141 L89.5739,22.4141 Z M86.2614,8.63542 C86.0034,8.31139 85.5316,8.25789 85.2075,8.51592 C84.8835,8.77395 84.83,9.2458 85.088,9.56983 L86.2614,8.63542 Z M91.1006,58.4684 C99.5218,58.4684 106.351,51.6561 106.351,43.2494 L104.851,43.2494 C104.851,50.8246 98.6964,56.9684 91.1006,56.9684 L91.1006,58.4684 Z M15.5006,28.0304 C7.07948,28.0304 0.25,34.8426 0.25,43.2494 L1.75,43.2494 C1.75,35.6742 7.90481,29.5304 15.5006,29.5304 L15.5006,28.0304 Z M25.8412,28.0304 L15.5006,28.0304 L15.5006,29.5304 L25.8412,29.5304 L25.8412,28.0304 Z M29.9203,25.9819 C31.1831,20.7146 35.934,16.7977 41.6018,16.7977 L41.6018,15.2977 C35.2266,15.2977 29.883,19.7037 28.4617,25.6322 L29.9203,25.9819 Z M41.6018,16.7977 C42.432,16.7968 43.206,16.8758 43.9898,17.0344 L44.2856,15.5639 C43.4303,15.3927 42.5082,15.2987 41.6018,15.2977 L41.6018,16.7977 Z M68.8629,0.25 C59.748,0.25 51.916,5.72928 48.493,13.5655 L49.8676,14.166 C53.0599,6.85777 60.364,1.75 68.8629,1.75 L68.8629,0.25 Z M0.25,43.2494 C0.256608,45.8656 0.94864,48.414 2.11925,50.5556 L3.43391,49.8334 C2.33939,47.852 1.743392,45.6669 1.75,43.2494 L0.25,43.2494 Z M8.79051,56.9197 C10.79023,57.8941 13.1215,58.463 15.5006,58.4684 L15.5006,56.9684 C13.3009,56.9737 11.3011,56.4838 9.4502,55.5726 L8.79051,56.9197 Z M15.5006,58.4684 L23.041,58.4684 L23.041,56.9684 L15.5006,56.9684 L15.5006,58.4684 Z M38.7016,58.4684 L64.8028,58.4684 L64.8028,56.9684 L38.7016,56.9684 L38.7016,58.4684 Z M68.8629,58.4684 L91.1006,58.4684 L91.1006,56.9684 L68.8629,56.9684 L68.8629,58.4684 Z M78.4675,2.4239 C75.5856,1.0473033 72.2751,0.255178 68.8629,0.25 L68.8629,1.75 C72.0991,1.744822 75.0838,2.46091 77.8192,3.77656 L78.4675,2.4239 Z M91.0739,22.4141 C91.0618,17.2491 89.2375,12.3874 86.2614,8.63542 L85.088,9.56983 C87.9329,13.1276 89.586,17.5173 89.5739,22.4141 L91.0739,22.4141 Z M43.9898,17.0344 C46.2581,17.4907 48.8977,16.3863 49.8676,14.166 L48.493,13.5655 C47.8483,15.0414 45.9717,15.9031 44.2856,15.5639 L43.9898,17.0344 Z M25.8412,29.5304 C27.9438,29.5304 29.4788,27.8237 29.9203,25.9819 L28.4617,25.6322 C28.1307,27.0128 27.0523,28.0304 25.8412,28.0304 L25.8412,29.5304 Z" id="path93_stroke"></path>
                    </g>
                </g>
                </g>
            </g>
            <g id="Vector-2" transform="translate(147.000000, 194.000000)" fill="#F2F9FF" fill-rule="nonzero">
                <g id="path0_fill-link" transform="translate(0.460000, 0.600000)">
                    <path d="M60.3997,66.2779 L1.9512,115.825 C-2.5277,119.621 2.071,126.694 7.3584,124.141 L55.5048,100.893 C58.8248,99.29 62.6789,101.709 62.6789,105.396 L62.6789,119.519 C62.6789,123.525 67.1532,125.904 70.4742,123.665 L108.577,97.973 C115.162,93.5332 124.125,95.5433 128.183,102.37 C132.535,109.692 142.413,111.371 148.941,105.898 L182.039,78.1488 C185.814,74.9836 191.408,78.6099 190.06,83.3485 L186.531,95.7527 C185.228,100.333 190.46,103.969 194.299,101.152 L217.43,84.1767 C220.908,81.6242 225.769,84.3792 225.366,88.6746 L224.111,102.058 C223.644,107.043 229.981,109.545 233.045,105.583 L253.978,78.5143 C254.448,77.906 255.053,77.4144 255.744,77.0777 L275.997,67.2151 C278.963,65.7707 279.742,61.9001 277.565,59.4209 L262.495,42.2559 C259.139,38.433 262.971,32.6238 267.806,34.2046 L327.497,53.7189 L232.015,2.03632 C228.508,0.13787 224.287,0.10596 220.751,1.95114 L97.992,66.0173 C95.903,67.1072 93.54,67.5584 91.197,67.3145 L65.6508,64.6552 C63.7524,64.4575 61.8556,65.0437 60.3997,66.2779 Z" id="path0_fill"></path>
                </g>
            </g>
            <g id="Vector-2" transform="translate(245.000000, 191.000000)" fill="#E6F2FC" fill-rule="nonzero">
                <g id="path1_fill-link" transform="translate(0.800000, 0.040000)">
                    <path d="M49.7617,44.2494 L2.4841,67.1317 C-1.5306,69.0748 -0.1468,75.11 4.3133,75.11 C5.3906,75.11 6.4266,75.524 7.2072,76.2665 L9.3003,78.2575 C14.1978,82.916 22.0465,82.3287 26.1962,76.9934 L34.2738,66.6079 C35.0615,65.5952 35.9447,64.6606 36.9114,63.8171 L57.0774,46.2207 C58.8959,44.6339 60.9866,43.3893 63.2484,42.5472 L80.1573,36.2517 C83.6659,34.9453 87.471,34.6501 91.139,35.3995 L99.308,37.0684 C105.392,38.3114 111.708,36.6579 116.403,32.5933 L123.652,26.317 C125.533,24.6876 127.987,23.8756 130.47,24.0607 L145.593,25.1887 C151.748,25.6477 154.301,17.4775 148.979,14.351 C148.869,14.2866 148.762,14.2185 148.657,14.147 L134.352,4.43055 C127.719,-0.07521 119.036,-0.18341 112.292,4.15567 L51.4744,43.2885 C50.9234,43.6431 50.3514,43.9639 49.7617,44.2494 Z" id="path1_fill"></path>
                </g>
            </g>
            <g id="Vector" transform="translate(101.000000, 182.000000)" fill="#C8D6E3" fill-rule="nonzero">
                <g id="path2_stroke-link" transform="translate(0.220000, 0.130000)">
                    <path d="M0.508687,161.009 C0.195726,161.28 0.161988,161.754 0.433333,162.067 C0.704677,162.38 1.178351,162.414 1.491313,162.142 L0.508687,161.009 Z M495.453,153.127 C495.816,153.326 496.272,153.194 496.472,152.832 C496.672,152.469 496.54,152.013 496.177,151.813 L495.453,153.127 Z M3.94461,160.015 C4.25757,159.744 4.29131,159.27 4.01996,158.957 C3.74862,158.644 3.27495,158.611 2.96198,158.882 L3.94461,160.015 Z M8.35718,154.204 C8.04422,154.476 8.01048,154.949 8.28182,155.262 C8.55317,155.575 9.02684,155.609 9.3398,155.337 L8.35718,154.204 Z M23.5166,143.046 C23.8296,142.775 23.8633,142.301 23.592,141.988 C23.3206,141.675 22.847,141.641 22.534,141.913 L23.5166,143.046 Z M24.8879,139.899 C24.579,140.175 24.5523,140.649 24.8282,140.958 C25.1042,141.267 25.5783,141.293 25.8872,141.017 L24.8879,139.899 Z M26.9062,140.107 C27.2151,139.831 27.2419,139.357 26.9659,139.048 C26.69,138.739 26.2158,138.712 25.9069,138.988 L26.9062,140.107 Z M27.949,137.218 C27.6361,137.489 27.6023,137.963 27.8737,138.276 C28.145,138.589 28.6187,138.622 28.9316,138.351 L27.949,137.218 Z M90.8382,82.6916 C90.5247,82.9622 90.4898,83.4358 90.7604,83.7494 C91.031,84.063 91.5046,84.0978 91.8182,83.8272 L90.8382,82.6916 Z M87.9658,87.1673 C88.2788,86.896 88.3125,86.4223 88.0412,86.1093 C87.7698,85.7964 87.2962,85.7626 86.9832,86.034 L87.9658,87.1673 Z M241.219,14.2548 C241.58,14.053 241.71,13.5961 241.508,13.2344 C241.306,12.8727 240.85,12.7431 240.488,12.9449 L241.219,14.2548 Z M252.676,6.14495 C252.314,6.34676 252.185,6.80359 252.387,7.16532 C252.588,7.52705 253.045,7.65669 253.407,7.45488 L252.676,6.14495 Z M173.819,50.1395 C173.458,50.3414 173.328,50.7982 173.53,51.1599 C173.732,51.5216 174.188,51.6513 174.55,51.4495 L173.819,50.1395 Z M163.394,57.6737 C163.755,57.4719 163.885,57.015 163.683,56.6533 C163.481,56.2916 163.025,56.1619 162.663,56.3638 L163.394,57.6737 Z M269.549,3.43359 C269.906,3.64487 270.366,3.52733 270.577,3.17106 C270.788,2.81478 270.671,2.35468 270.315,2.1434 L269.549,3.43359 Z M278.988,7.28683 C278.631,7.07555 278.171,7.19309 277.96,7.54937 C277.749,7.90564 277.866,8.36574 278.223,8.57702 L278.988,7.28683 Z M369.648,61.0508 C369.291,60.8395 368.831,60.957 368.62,61.3133 C368.409,61.6696 368.526,62.1297 368.883,62.341 L369.648,61.0508 Z M362.091,58.3132 C362.447,58.5245 362.907,58.4069 363.118,58.0507 C363.33,57.6944 363.212,57.2343 362.856,57.023 L362.091,58.3132 Z M493.197,150.17 C492.834,149.97 492.378,150.102 492.178,150.465 C491.978,150.828 492.11,151.284 492.473,151.484 L493.197,150.17 Z M489.599,149.9 C489.962,150.1 490.418,149.968 490.618,149.605 C490.818,149.243 490.686,148.786 490.323,148.586 L489.599,149.9 Z M473.221,139.162 C472.858,138.962 472.402,139.094 472.202,139.456 C472.002,139.819 472.134,140.275 472.497,140.475 L473.221,139.162 Z M464.866,136.27 C465.229,136.47 465.685,136.338 465.885,135.975 C466.085,135.612 465.953,135.156 465.59,134.956 L464.866,136.27 Z M426.874,114.287 L426.356,114.829 L426.874,114.287 Z M427.911,115.047 L427.549,115.704 L427.911,115.047 Z M376.195,65.9536 L375.677,66.4964 L376.195,65.9536 Z M375.294,65.2713 L375.677,64.6262 L375.294,65.2713 Z M262.718,1.40154 L262.352,0.746575 L262.718,1.40154 Z M267.704,1.46733 L267.322,2.11243 L267.704,1.46733 Z M125.831,74.753 L126.235,74.1213 L125.831,74.753 Z M130.963,74.9084 L130.597,74.2534 L130.963,74.9084 Z M114.822,67.7058 L114.418,68.3375 L114.822,67.7058 Z M108.86,68.1314 L109.35,68.6992 L108.86,68.1314 Z M114.418,68.3375 L125.426,75.3847 L126.235,74.1213 L115.227,67.0741 L114.418,68.3375 Z M375.677,66.4964 L426.356,114.829 L427.391,113.744 L376.712,65.4109 L375.677,66.4964 Z M1.491313,162.142 L3.94461,160.015 L2.96198,158.882 L0.508687,161.009 L1.491313,162.142 Z M9.3398,155.337 L23.5166,143.046 L22.534,141.913 L8.35718,154.204 L9.3398,155.337 Z M25.8872,141.017 L26.9062,140.107 L25.9069,138.988 L24.8879,139.899 L25.8872,141.017 Z M91.8182,83.8272 L109.35,68.6992 L108.37,67.5635 L90.8382,82.6916 L91.8182,83.8272 Z M28.9316,138.351 L87.9658,87.1673 L86.9832,86.034 L27.949,137.218 L28.9316,138.351 Z M253.407,7.45488 L263.083,2.0565 L262.352,0.746575 L252.676,6.14495 L253.407,7.45488 Z M174.55,51.4495 L241.219,14.2548 L240.488,12.9449 L173.819,50.1395 L174.55,51.4495 Z M131.328,75.5633 L163.394,57.6737 L162.663,56.3638 L130.597,74.2534 L131.328,75.5633 Z M267.322,2.11243 L269.549,3.43359 L270.315,2.1434 L268.087,0.822238 L267.322,2.11243 Z M368.883,62.341 L374.912,65.9164 L375.677,64.6262 L369.648,61.0508 L368.883,62.341 Z M278.223,8.57702 L362.091,58.3132 L362.856,57.023 L278.988,7.28683 L278.223,8.57702 Z M492.473,151.484 L495.453,153.127 L496.177,151.813 L493.197,150.17 L492.473,151.484 Z M472.497,140.475 L489.599,149.9 L490.323,148.586 L473.221,139.162 L472.497,140.475 Z M427.549,115.704 L464.866,136.27 L465.59,134.956 L428.273,114.39 L427.549,115.704 Z M426.356,114.829 C426.704,115.159 427.13,115.472 427.549,115.704 L428.273,114.39 C427.938,114.207 427.667,114.009 427.391,113.744 L426.356,114.829 Z M376.712,65.4109 C376.407,65.1217 376.038,64.8416 375.677,64.6262 L374.912,65.9164 C375.201,66.0864 375.435,66.264 375.677,66.4964 L376.712,65.4109 Z M263.083,2.0565 C264.405,1.31897 266.02,1.34028 267.322,2.11243 L268.087,0.822238 C266.325,-0.222437 264.141,-0.251258 262.352,0.746575 L263.083,2.0565 Z M125.426,75.3847 C127.21,76.5267 129.478,76.5954 131.328,75.5633 L130.597,74.2534 C129.23,75.0162 127.554,74.9655 126.235,74.1213 L125.426,75.3847 Z M115.227,67.0741 C113.084,65.7028 110.296,65.9018 108.37,67.5635 L109.35,68.6992 C110.773,67.471 112.834,67.3239 114.418,68.3375 L115.227,67.0741 Z" id="path2_stroke"></path>
                </g>
            </g>
            <g id="frog-flag" transform="translate(214.000000, 0.000000)">
                <g id="Group">
                    <g id="Vector" transform="translate(10.000000, 9.000000)" fill="#FF5722" fill-rule="nonzero">
                        <g id="path3_fill-link" transform="translate(0.230000, 0.150000)">
                            <path d="M112.594,55.3658 L0,57.3976 C0,57.3976 8.97367,21.8416 17.6087,13.8838 C25.0585,6.9419 46.0535,0 57.2283,0 C66.5406,0 89.3981,7.28052 96.6786,13.8838 C105.822,22.1802 112.594,55.3658 112.594,55.3658 Z" id="path3_fill"></path>
                        </g>
                    </g>
                    <g id="Vector" transform="translate(113.000000, 68.000000)" fill="#E54323" fill-rule="nonzero">
                        <g id="path4_fill-link" transform="translate(0.680000, 0.750000)">
                            <path d="M12.36,13.3758 C12.36,13.3758 12.36,14.561 9.3123,13.7145 C6.43395,13.0372 -2.58353e-06,1.29177e-06 -2.58353e-06,1.29177e-06 C-2.58353e-06,1.29177e-06 8.80436,3.5556 12.36,13.3758 Z" id="path4_fill"></path>
                        </g>
                    </g>
                    <g id="Vector" transform="translate(8.000000, 65.000000)" fill="#E54323" fill-rule="nonzero">
                        <g id="path5_fill-link" transform="translate(0.710000, 0.530000)">
                            <path d="M-1.61471e-07,16.5928 C-1.61471e-07,16.5928 0.169314,17.2701 2.53972,17.1008 C4.91012,16.9315 16.5928,-1.29177e-06 16.5928,-1.29177e-06 C16.5928,-1.29177e-06 4.57149,2.53972 4.06355,3.72492 C3.5556,4.74081 -1.61471e-07,16.5928 -1.61471e-07,16.5928 Z" id="path5_fill"></path>
                        </g>
                    </g>
                    <g id="Vector" transform="translate(19.000000, 97.000000)" fill="url(#radialGradient-2)" fill-rule="nonzero">
                        <g id="path6_fill-link" transform="translate(0.790000, 0.190000)">
                            <path d="M80.5168,82.1175 C67.1409,81.7789 63.2467,79.5778 16.1773,82.1175 C9.40469,82.4562 2.29348,78.7312 1.10828,69.419 C-2.78595,40.4662 4.8332,27.5983 4.8332,27.5983 C-4.14047,18.9632 6.69566,0 13.4682,0 L83.2258,0 C89.9984,0 100.327,18.1166 92.0302,26.5824 C92.0302,26.5824 100.327,39.9582 95.5858,69.419 C94.2313,78.054 92.0302,82.2869 80.5168,82.1175 Z" id="path6_fill"></path>
                        </g>
                    </g>
                    <g id="Vector" transform="translate(19.000000, 118.000000)" fill="#F6B618" fill-rule="nonzero">
                        <g id="path7_fill-link" transform="translate(0.370000, 0.980000)">
                            <path d="M86.3504,13.9376 C83.4721,9.8741 80.9323,3.60946 80.9323,1.23906 C80.9323,-1.97792 63.3236,2.08563 47.916,2.08563 C32.5084,2.08563 14.8997,-1.97792 14.8997,1.23906 C14.8997,3.44015 12.36,9.8741 9.48161,13.9376 C6.09532,18.6785 -6.45884e-07,28.668 -6.45884e-07,34.2554 C-6.45884e-07,53.2186 20.995,63.0389 47.7467,63.0389 C74.4984,63.0389 95.4934,53.2186 95.4934,34.2554 C95.832,28.668 89.7367,18.6785 86.3504,13.9376 Z" id="path7_fill"></path>
                        </g>
                    </g>
                    <g id="Vector" transform="translate(98.000000, 125.000000)" fill="#2ECC71" fill-rule="nonzero">
                        <g id="path8_fill-link" transform="translate(0.260000, 0.130000)">
                            <path d="M35.5696,20.1499 C28.2891,21.6737 2.38395,8.63648 0.182857,9.14442 C0.182857,8.46716 -0.325083,0.0014322 0.352176,0.0014322 C4.0771,-0.167882 27.1039,14.7318 32.5219,14.5625 C36.4162,14.3932 56.7339,11.0069 60.6281,10.1603 C61.9827,9.82167 65.7076,8.97511 65.1996,9.82168 C62.4906,14.0545 45.2205,17.7795 35.5696,20.1499 Z" id="path8_fill"></path>
                        </g>
                    </g>
                    <g id="Vector" opacity="0.48" transform="translate(98.000000, 124.000000)" fill="#00993E" fill-rule="nonzero">
                        <g id="path9_fill-link" transform="translate(0.270000, 0.780000)">
                            <path d="M0,9.4933 C0.846573,6.78427 -0.507942,-0.326937 0.33863,0.0116924 C8.80436,3.22867 25.9051,13.5568 29.63,14.2341 C23.3654,13.0489 19.1325,14.9114 17.2701,15.9272 C6.60326,11.3558 2.70903,9.83193 0,9.4933 Z" id="path9_fill"></path>
                        </g>
                    </g>
                    <g id="Vector" transform="translate(154.000000, 129.000000)" fill="#2ECC71" fill-rule="nonzero">
                        <g id="path10_fill-link" transform="translate(0.630000, 0.360000)">
                            <path d="M10.5187,7.78847 C10.18,7.61915 9.67209,7.61915 9.67209,7.61915 C8.99483,7.44984 9.33346,6.09533 10.5187,5.7567 C11.7039,5.41807 11.3652,4.06355 10.8573,4.06355 L10.0107,3.72491 C9.50277,3.72491 9.50278,2.53972 9.8414,2.20109 C10.18,2.03178 10.3493,1.69315 10.688,1.35452 C11.1959,0.846578 10.8573,0 10.3494,0 L0.529105,6.09532 C-0.317467,7.28052 -0.148148,8.63504 1.03705,9.48161 L10.5187,9.14299 C11.5346,9.3123 11.1959,8.12709 10.5187,7.78847 Z" id="path10_fill"></path>
                        </g>
                    </g>
                    <g transform="translate(22.000000, 158.000000)" fill-rule="nonzero" id="Vector">
                        <g fill="#2ECC71">
                            <g id="path11_fill-link" transform="translate(0.910000, 0.410000)">
                                <path d="M6.95812,12.1011 L5.26497,7.19097 C5.26497,6.68303 2.89457,0.418384 2.21731,0.0797545 C1.03211,-0.428189 -0.153094,1.60359 0.0162205,2.95811 C0.185535,7.19097 5.6036,12.609 5.6036,12.609 C6.11154,13.4556 7.12743,13.117 6.95812,12.1011 Z" id="path11_fill"></path>
                            </g>
                        </g>
                        <g transform="translate(3.000000, 3.000000)" fill="#159E4D">
                            <g id="path12_fill-link" transform="translate(0.980000, 0.090000)">
                                <path d="M3.22942e-07,0.101254 L0.338629,3.14891 C3.22942e-07,8.73629 4.23286,10.5987 4.23286,10.5987 C4.40218,11.4453 0.338629,-1.25326 3.22942e-07,0.101254 Z" id="path12_fill"></path>
                            </g>
                        </g>
                    </g>
                    <g transform="translate(0.000000, 123.000000)" fill-rule="nonzero" id="Vector">
                        <g fill="#2ECC71">
                            <g id="path13_fill-link" transform="translate(0.920000, 0.950000)">
                                <path d="M0.333433,13.5452 C3.38109,6.43396 34.7043,1.86246 36.0588,5.16707e-06 C36.5667,0.507949 43.0007,7.61915 42.4927,7.95778 C39.6144,10.6668 7.78327,11.1748 6.76738,16.4235 C5.7515,22.1802 22.175,33.1856 25.392,34.2015 C26.4079,34.5402 24.2068,38.773 23.1909,38.2651 C18.1115,35.5561 -2.88354,22.8575 0.333433,13.5452 Z" id="path13_fill"></path>
                            </g>
                        </g>
                        <g opacity="0.48" transform="translate(10.000000, 0.000000)" fill="#00993E">
                            <g id="path14_fill-link" transform="translate(0.740000, 0.780000)">
                                <path d="M26.2437,-5.16707e-06 C27.429,2.87834 33.5243,8.12709 32.6777,8.46572 C23.704,10.4975 3.55561,12.36 3.22942e-07,14.2224 C5.92601,11.1748 7.44984,7.28052 8.29641,5.07943 C19.9791,2.03177 23.8733,1.35451 26.2437,-5.16707e-06 Z" id="path14_fill"></path>
                            </g>
                        </g>
                    </g>
                    <g id="Vector" transform="translate(128.000000, 187.000000)" fill="#2ECC71" fill-rule="nonzero">
                        <g id="path15_fill-link" transform="translate(0.240000, 0.440000)">
                            <path d="M3.55561,0.169317 C3.55561,0.677261 3.55561,1.69314 3.55561,2.20109 C2.03178,14.7304 0.169309,25.2279 -5.16707e-06,28.4448 C-5.16707e-06,30.9846 2.3704,32.0004 2.3704,32.0004 C2.3704,32.0004 7.44984,9.3123 8.1271,4.23287 C8.29641,3.04767 8.46573,1.18521 8.1271,5.16707e-06 C6.43395,5.16707e-06 5.07944,5.16707e-06 3.55561,0.169317 Z" id="path15_fill"></path>
                        </g>
                    </g>
                    <g id="Vector" transform="translate(98.000000, 55.000000)" fill="#2ECC71" fill-rule="nonzero">
                        <g id="path16_fill-link" transform="translate(0.950000, 0.710000)">
                            <path d="M2.58353e-06,12.0213 C2.58353e-06,12.1906 2.58353e-06,12.36 2.58353e-06,12.36 C2.58353e-06,7.95778 1.1852,3.89423 3.21697,-1.20305e-14 C1.1852,3.72492 2.58353e-06,7.78847 2.58353e-06,12.0213 Z" id="path16_fill"></path>
                        </g>
                    </g>
                    <g id="Vector" transform="translate(129.000000, 213.000000)" fill="#2ECC71" fill-rule="nonzero">
                        <g id="path17_fill-link" transform="translate(0.430000, 0.150000)">
                            <path d="M10.6668,10.5238 C10.8361,10.0159 11.1748,9.1693 12.0213,8.49204 C12.6986,7.81478 13.2065,7.47615 14.561,7.13752 C15.5769,6.79889 15.5769,6.46026 15.4076,5.44437 C15.2383,4.93643 15.2383,4.25918 15.7462,3.24329 C16.2542,2.22741 16.7621,1.88877 17.6087,1.21151 C18.4553,0.534253 18.286,-0.143 17.6087,0.0263144 L2.03177,1.88877 L2.58353e-06,5.27507 L9.3123,11.5397 C9.65093,11.8783 10.3282,11.5397 10.6668,10.5238 Z" id="path17_fill"></path>
                        </g>
                    </g>
                    <g transform="translate(86.000000, 173.000000)" fill-rule="nonzero" id="Vector">
                        <g fill="#2ECC71">
                            <g id="path18_fill-link" transform="translate(0.590000, 0.380000)">
                                <path d="M46.5615,16.2542 C46.9001,14.7304 47.5774,13.2065 48.0853,11.6827 C34.3708,5.92601 14.8997,5.07944 8.80435,2.4061e-14 L-2.58353e-06,13.2065 C1.01588,10.1589 35.8947,12.36 46.5615,16.2542 Z" id="path18_fill"></path>
                            </g>
                        </g>
                        <g opacity="0.34" transform="translate(0.000000, 1.000000)" fill="#00993E">
                            <g id="path19_fill-link" transform="translate(0.420000, 0.060000)">
                                <path d="M0,12.5293 L9.98956,2.58353e-06 L10.1589,2.58353e-06 C13.7145,2.03178 19.6405,3.3863 26.4131,4.91013 C15.9156,8.80436 14.2224,11.1748 14.2224,11.1748 C14.2224,11.1748 2.87835,10.1589 0,12.5293 Z" id="path19_fill"></path>
                            </g>
                        </g>
                    </g>
                    <g id="Vector" transform="translate(43.000000, 183.000000)" fill="#2ECC71" fill-rule="nonzero">
                        <g id="path20_fill-link" transform="translate(0.250000, 0.710000)">
                            <path d="M15.4076,54.5193 C14.7304,43.3445 13.0372,3.89424 15.9156,2.87835 L0,-2.58353e-06 C4.57149,6.09532 8.63504,37.4185 10.6668,51.4716 L15.4076,54.5193 Z" id="path20_fill"></path>
                        </g>
                    </g>
                    <g id="Vector" transform="translate(52.000000, 220.000000)" fill="#2ECC71" fill-rule="nonzero">
                        <g id="path21_fill-link" transform="translate(0.900000, 0.960000)">
                            <path d="M6.26464,30.9845 C6.77258,27.9369 6.09532,17.2701 5.07944,4.5715 C5.07944,3.72492 4.91012,3.04765 4.91012,2.20108 L1.29177e-06,1.03341e-05 C1.29177e-06,2.2011 0.169313,4.23286 0.169313,6.09532 C0.338628,11.1748 3.38629,34.3708 3.38629,34.3708 C3.38629,34.3708 5.7567,33.1856 6.26464,30.9845 Z" id="path21_fill"></path>
                        </g>
                    </g>
                    <g id="Vector" transform="translate(40.000000, 249.000000)" fill="#2ECC71" fill-rule="nonzero">
                        <g id="path22_fill-link" transform="translate(11.860781, 10.521189) rotate(-26.374156) translate(-11.860781, -10.521189) translate(2.360783, 3.521191)">
                            <path d="M6.41637837,12.1905969 C6.41637837,11.5133971 6.07774846,10.4974973 5.40048863,9.82024751 C4.7232288,9.14298768 4.21528893,8.80433777 2.86076927,8.63502781 C1.84488953,8.46571785 1.84488953,7.95778798 2.18351945,6.77258828 C2.3528294,6.09532846 2.52214936,5.07944871 2.18351945,3.89423901 C1.84488953,2.70903931 1.33693966,2.3704094 0.490371876,1.69314957 C-0.35620091,1.01588974 -0.0175703955,0.169303957 0.82900179,0.169303957 L17.2524956,5.16706869e-06 L18.7762952,4.06353897 L7.60157807,13.5451966 C7.26294816,13.8837965 6.58568833,13.5451966 6.41637837,12.1905969 Z" id="path22_fill"></path>
                        </g>
                    </g>
                    <g id="Vector" transform="translate(53.000000, 227.000000)" fill="#27C165" fill-rule="nonzero">
                        <g id="path23_fill-link" transform="translate(0.070000, 0.900000)">
                            <path d="M4.7408,24.0427 L2.53972,22.0109 C2.53972,22.0109 -1.29177e-06,3.21697 -1.29177e-06,-5.16707e-06 C-1.29177e-06,-5.16707e-06 1.1852,15.9156 4.7408,24.0427 Z" id="path23_fill"></path>
                        </g>
                    </g>
                    <g id="Vector" transform="translate(47.000000, 249.000000)" fill="#27C165" fill-rule="nonzero">
                        <g id="path24_fill-link" transform="translate(0.570000, 0.880000)">
                            <path d="M0,4.06616 L8.04511,0 L10.4052,2.23667 C10.4052,2.23667 8.29641,4.57411 0,4.06616 Z" id="path24_fill"></path>
                        </g>
                    </g>
                    <g id="Vector" opacity="0.34" transform="translate(42.000000, 182.000000)" fill="#00993E" fill-rule="nonzero">
                        <g id="path25_fill-link" transform="translate(0.570000, 0.700000)">
                            <path d="M16.2542,4.23286 L2.20109,0.507949 L6.45884e-07,0 C2.70903,3.21698 4.57149,11.6827 5.92601,18.6246 C9.98956,8.1271 15.5769,6.60327 15.5769,6.60327 C15.5769,6.60327 15.5769,5.58738 16.2542,4.23286 Z" id="path25_fill"></path>
                        </g>
                    </g>
                    <g transform="translate(25.000000, 119.000000)" fill-rule="nonzero" id="Vector">
                        <g fill="url(#radialGradient-4)">
                            <g id="path26_fill-link" transform="translate(0.970000, 0.030000)">
                                <path d="M77.7154,20.1484 C75.1756,16.0849 72.9746,9.82024 72.9746,7.44984 C72.9746,4.23287 77.3767,2.3704 80.0858,0 C71.1121,5.92601 55.8738,8.29641 42.3286,8.29641 C28.7835,8.29641 13.5452,5.92601 4.57149,0 C7.28052,2.3704 11.6827,4.23287 11.6827,7.44984 C11.6827,9.65093 9.48161,16.0849 6.94189,20.1484 C3.89423,24.8892 0,34.8788 0,40.4662 C0,59.4294 18.6246,69.2496 42.3286,69.2496 C66.0327,69.2496 84.6573,59.4294 84.6573,40.4662 C84.6573,34.8788 80.763,24.8892 77.7154,20.1484 Z" id="path26_fill"></path>
                            </g>
                        </g>
                        <g opacity="0.26" transform="translate(14.000000, 3.000000)" fill="#3BE07E">
                            <g id="path27_fill-link" transform="translate(0.350000, 0.590000)">
                                <path d="M53.1648,15.5769 C51.4716,12.5293 49.9478,7.61916 49.9478,5.7567 C49.9478,3.21698 52.9954,1.86246 54.8579,0 C48.5933,4.57149 38.2651,6.43396 28.9528,6.43396 C19.6405,6.43396 9.3123,4.57149 3.04766,0 C4.91012,1.86246 7.95778,3.38629 7.95778,5.7567 C7.95778,7.44984 6.43395,12.36 4.74081,15.5769 C2.70903,19.1325 1.29177e-06,26.921 1.29177e-06,31.3232 C1.29177e-06,45.8842 12.6986,53.5034 28.9528,53.5034 C45.207,53.5034 57.9056,45.8842 57.9056,31.3232 C57.9056,26.921 55.1965,19.3018 53.1648,15.5769 Z" id="path27_fill"></path>
                            </g>
                        </g>
                        <g opacity="0.3" transform="translate(8.000000, 1.000000)" fill="#1AAA54">
                            <g id="path28_fill-link" transform="translate(0.090000, 0.900000)">
                                <path d="M69.7576,16.7621 C67.5565,12.6986 65.8633,7.61916 65.8633,5.58738 C65.8633,3.3863 68.0644,1.69315 70.4348,-2.4061e-14 C60.7839,5.07944 48.5933,8.1271 35.2174,8.1271 C22.0109,8.1271 9.65093,5.07944 -1.80458e-14,-2.4061e-14 C2.20109,1.52383 4.57149,3.21698 4.57149,5.58738 C4.57149,7.61916 2.87835,12.8679 0.677257,16.7621 C10.3282,11.852 22.1802,9.14299 35.2174,9.14299 C48.2546,9.14299 60.276,11.852 69.7576,16.7621 Z" id="path28_fill"></path>
                            </g>
                        </g>
                    </g>
                    <g id="Vector" transform="translate(131.000000, 184.000000)" fill="#2ECC71" fill-rule="nonzero">
                        <g id="path29_fill-link" transform="translate(0.540000, 0.810000)">
                            <path d="M2.11842,0.0871746 C2.96499,-0.251454 3.98088,0.425793 4.48882,1.61099 C4.99677,2.7962 4.82745,3.47346 4.48882,4.32004 C3.98088,5.33592 0.594577,4.99729 0.0866338,3.81209 C-0.42131,2.62689 1.44116,0.425804 2.11842,0.0871746 Z" id="path29_fill"></path>
                        </g>
                    </g>
                    <g transform="translate(22.000000, 157.000000)" fill-rule="nonzero" id="Vector">
                        <g opacity="0.48" transform="translate(2.000000, 1.000000)" fill="#007530">
                            <g id="path30_fill-link" transform="translate(0.410000, 0.320000)">
                                <path d="M11.8073,4.28252 L7.95372,4.81783 C7.42823,4.81783 6.90275,5.53158 7.42823,6.0669 L11.1066,9.45722 C11.8073,10.171 11.1066,11.2416 10.0557,10.7063 C10.0557,10.7063 3.45801,5.77773 0.305106,5.24241 C0.305106,5.24241 -0.629192,0.178438 0.772099,0 L11.9824,2.85501 C13.0334,3.03344 13.0334,4.10408 11.8073,4.28252 Z" id="path30_fill"></path>
                            </g>
                        </g>
                        <g fill="#2ECC71">
                            <g id="path31_fill-link" transform="translate(0.910000, 0.300000)">
                                <path d="M12.7201,4.23286 L8.99514,4.74081 C8.48719,4.74081 7.97925,5.41806 8.48719,5.92601 L12.0428,9.14299 C12.7201,9.82024 12.0428,10.8361 11.0269,10.3282 C11.0269,10.3282 4.93159,5.75669 3.40776,6.77258 C1.37598,8.1271 0.190782,3.89423 0.0214679,2.87834 C-0.147847,1.52383 0.698725,0.338629 2.05324,-2.4061e-14 C2.05324,-2.4061e-14 2.05324,-2.4061e-14 2.22256,-2.4061e-14 L13.0587,2.70903 C13.9053,3.04766 13.9053,4.23286 12.7201,4.23286 Z" id="path31_fill"></path>
                            </g>
                        </g>
                    </g>
                    <g id="Vector" transform="translate(129.000000, 192.000000)" fill="#27C165" fill-rule="nonzero">
                        <g id="path32_fill-link" transform="translate(0.090000, 0.010000)">
                            <path d="M-5.16707e-06,24.8892 L2.3704,23.0268 C2.3704,23.0268 6.60327,3.21698 7.11121,-2.4061e-14 C7.11121,-2.4061e-14 3.38629,16.7621 -5.16707e-06,24.8892 Z" id="path32_fill"></path>
                        </g>
                    </g>
                    <g id="Vector" transform="translate(11.000000, 52.000000)" fill="#2ECC71" fill-rule="nonzero">
                        <g id="path33_fill-link" transform="translate(0.250000, 0.660000)">
                            <path d="M57.059,1.29177e-06 C25.5665,1.29177e-06 -1.61471e-07,17.1008 -1.61471e-07,38.2651 C-1.61471e-07,47.916 5.24875,56.7204 14.0531,63.4929 C14.2224,63.6623 14.2224,63.6623 14.3917,63.8316 C15.4076,64.3395 16.4235,65.0168 17.2701,65.8633 C27.5983,72.6359 41.4821,76.6995 57.059,76.6995 C72.4666,76.6995 86.5197,72.4666 96.8479,65.8633 C97.6945,65.1861 98.7104,64.5088 99.7263,63.8316 C99.8956,63.6623 99.8956,63.6623 100.065,63.4929 C108.869,56.7204 114.118,47.916 114.118,38.2651 C114.118,17.1008 88.5515,1.29177e-06 57.059,1.29177e-06 Z" id="path33_fill"></path>
                        </g>
                    </g>
                    <g id="Vector" transform="translate(82.000000, 62.000000)" fill="#27C165" fill-rule="nonzero">
                        <g id="path34_fill-link" transform="translate(0.860000, 0.650000)">
                            <path d="M30.4766,4.91012 C29.7994,4.40218 29.1221,3.72492 28.4448,3.21698 C27.7676,4.23286 27.0903,5.24875 26.2438,6.09532 C22.3495,9.98956 16.4235,11.852 10.6668,10.1589 C5.41807,8.63504 1.69315,4.7408 2.58353e-06,-2.58353e-06 C0.338632,5.92601 5.75669,10.3282 11.5134,11.852 C17.1008,13.3758 25.0586,12.0213 28.7835,7.95778 C36.5719,14.0531 41.6514,22.0109 42.3286,30.6459 C42.3286,29.9687 42.4979,29.1221 42.4979,28.2755 C42.4979,19.6405 37.9265,11.3441 30.4766,4.91012 Z" id="path34_fill"></path>
                        </g>
                    </g>
                    <g id="Vector" transform="translate(21.000000, 83.000000)" fill="url(#linearGradient-6)" fill-rule="nonzero">
                        <g id="path35_fill-link" transform="translate(0.910000, 0.990000)">
                            <path d="M92.615,10.8361 C81.6096,36.2333 14.8997,37.7571 -6.45884e-07,10.1589 C-6.45884e-07,10.1589 16.7621,1.29177e-06 47.0694,1.29177e-06 C75.6836,1.29177e-06 92.615,10.8361 92.615,10.8361 Z" id="path35_fill"></path>
                        </g>
                    </g>
                    <g id="Vector" transform="translate(11.000000, 62.000000)" fill="#27C165" fill-rule="nonzero">
                        <g id="path36_fill-link" transform="translate(0.250000, 0.650000)">
                            <path d="M12.0213,4.91012 C12.6986,4.40218 13.3758,3.72492 14.0531,3.21698 C14.7304,4.23286 15.4076,5.24875 16.2542,6.09532 C20.1484,9.98956 26.0744,11.852 31.8311,10.1589 C37.0799,8.63504 40.8048,4.7408 42.4979,-2.58353e-06 C42.1593,5.92601 36.7412,10.3282 30.9846,11.852 C25.3972,13.3758 17.4394,12.0213 13.7145,7.95778 C5.92601,14.0531 0.846572,22.0109 0.169314,30.6459 C0.169314,29.9687 -1.61471e-07,29.1221 -1.61471e-07,28.2755 C-1.61471e-07,19.6405 4.57149,11.3441 12.0213,4.91012 Z" id="path36_fill"></path>
                        </g>
                    </g>
                    <g id="Vector" transform="translate(53.000000, 52.000000)" fill="#27C165" fill-rule="nonzero">
                        <g id="path37_fill-link" transform="translate(0.740000, 0.660000)">
                            <path d="M14.561,4.06355 C19.4712,4.06355 24.0427,4.40218 28.6142,5.24875 C28.6142,3.89423 28.7835,2.53972 29.1221,1.1852 C24.5506,0.338628 19.6405,1.29177e-06 14.561,1.29177e-06 C9.48161,1.29177e-06 4.74081,0.507943 1.29177e-06,1.1852 C0.33863,2.53972 0.507944,3.89423 0.507944,5.24875 C5.07944,4.57149 9.65093,4.06355 14.561,4.06355 Z" id="path37_fill"></path>
                        </g>
                    </g>
                    <g id="Vector" transform="translate(22.000000, 94.000000)" fill="url(#linearGradient-8)" fill-rule="nonzero">
                        <g id="path38_fill-link" transform="translate(0.010000, 0.820000)">
                            <path d="M0.0752509,-2.58353e-06 C0.0752509,-2.58353e-06 -0.0940636,-2.58353e-06 0.0752509,-2.58353e-06 C14.9749,35.3867 81.6848,33.355 92.6903,1.01589 C75.9281,27.0903 20.9009,25.9051 0.0752509,-2.58353e-06 Z" id="path38_fill"></path>
                        </g>
                    </g>
                    <g id="Vector" transform="translate(21.000000, 93.000000)" fill="#00993E" fill-rule="nonzero">
                        <g id="path39_stroke-link" transform="translate(0.080000, 0.150000)">
                            <path d="M93.229,1.509982 C90.5389,7.71797 84.4197,12.5155 76.4371,15.7774 C68.4455,19.0457 58.6884,20.74 48.7656,20.7912 C38.8421,20.8454 28.841,19.2557 20.3628,15.9287 C11.8964,12.6088 5.03161,7.58208 1.370195,0.800141 L0.629805,1.199861 C4.41823,8.21705 11.4796,13.3492 20.0557,16.712 C28.6201,20.0676 38.778,21.6843 48.7701,21.6326 C58.7629,21.5781 68.678,19.8543 76.7554,16.5563 C84.8418,13.252 91.1885,8.33513 94.0011,1.844529 L93.229,1.509982 Z" id="path39_stroke"></path>
                        </g>
                    </g>
                    <g transform="translate(62.000000, 69.000000)" fill="#44A85F" fill-rule="nonzero" id="Vector">
                        <g>
                            <g id="path40_fill-link" transform="translate(0.720000, 0.090000)">
                                <path d="M1.1852,1.69315 C1.83977,1.69315 2.37041,1.31412 2.37041,0.846575 C2.37041,0.379026 1.83977,2.58353e-06 1.1852,2.58353e-06 C0.530634,2.58353e-06 0,0.379026 0,0.846575 C0,1.31412 0.530634,1.69315 1.1852,1.69315 Z" id="path40_fill"></path>
                            </g>
                        </g>
                        <g transform="translate(9.000000, 0.000000)">
                            <g id="path41_fill-link" transform="translate(0.520000, 0.090000)">
                                <path d="M1.1852,1.69315 C1.83977,1.69315 2.3704,1.31412 2.3704,0.846575 C2.3704,0.379026 1.83977,2.58353e-06 1.1852,2.58353e-06 C0.530635,2.58353e-06 0,0.379026 0,0.846575 C0,1.31412 0.530635,1.69315 1.1852,1.69315 Z" id="path41_fill"></path>
                            </g>
                        </g>
                    </g>
                    <g id="Vector" transform="translate(111.000000, 91.000000)" fill="#00993E" fill-rule="nonzero">
                        <g id="path42_fill-link" transform="translate(3.843200, 3.542500) rotate(-63.903841) translate(-3.843200, -3.542500) translate(2.343128, 0.042333)">
                            <path d="M1.01592857,6.77290379 C1.57701539,6.77290379 2.03186714,5.25673131 2.03186714,3.38645189 C2.03186714,1.51616248 1.57701539,-2.58365352e-06 1.01592857,-2.58365352e-06 C0.454847745,-2.58365352e-06 0,1.51616248 0,3.38645189 C0,5.25673131 0.454847745,6.77290379 1.01592857,6.77290379 Z" id="path42_fill"></path>
                        </g>
                    </g>
                    <g id="Vector" transform="translate(18.000000, 91.000000)" fill="#00993E" fill-rule="nonzero">
                        <g id="path43_fill-link" transform="translate(4.213200, 3.407500) rotate(-26.096159) translate(-4.213200, -3.407500) translate(0.713033, 1.907428)">
                            <path d="M3.38645189,2.03187714 C5.25674131,2.03187714 6.77290379,1.57701539 6.77290379,1.01592857 C6.77290379,0.454847745 5.25674131,0 3.38645189,0 C1.51616248,0 0,0.454847745 0,1.01592857 C0,1.57701539 1.51616248,2.03187714 3.38645189,2.03187714 Z" id="path43_fill"></path>
                        </g>
                    </g>
                    <g transform="translate(103.000000, 73.000000)" fill="#006D2C" fill-rule="nonzero" id="Vector" opacity="0.17">
                        <g transform="translate(0.000000, 3.000000)">
                            <g id="path44_fill-link" transform="translate(0.520000, 0.540000)">
                                <path d="M3.38629,6.77258 C5.25648,6.77258 6.77258,5.25649 6.77258,3.38629 C6.77258,1.51609 5.25648,0 3.38629,0 C1.51609,0 -2.58353e-06,1.51609 -2.58353e-06,3.38629 C-2.58353e-06,5.25649 1.51609,6.77258 3.38629,6.77258 Z" id="path44_fill"></path>
                            </g>
                        </g>
                        <g transform="translate(11.000000, 0.000000)">
                            <g id="path45_fill-link" transform="translate(0.870000, 0.830000)">
                                <path d="M2.87835,5.75669 C4.46801,5.75669 5.75669,4.46802 5.75669,2.87835 C5.75669,1.28868 4.46801,0 2.87835,0 C1.28868,0 5.16707e-06,1.28868 5.16707e-06,2.87835 C5.16707e-06,4.46802 1.28868,5.75669 2.87835,5.75669 Z" id="path45_fill"></path>
                            </g>
                        </g>
                        <g transform="translate(12.000000, 10.000000)">
                            <g id="path46_fill-link" transform="translate(0.540000, 0.820000)">
                                <path d="M2.20109,4.40218 C3.41672,4.40218 4.40218,3.41672 4.40218,2.20109 C4.40218,0.985464 3.41672,-2.58353e-06 2.20109,-2.58353e-06 C0.985461,-2.58353e-06 -5.16707e-06,0.985464 -5.16707e-06,2.20109 C-5.16707e-06,3.41672 0.985461,4.40218 2.20109,4.40218 Z" id="path46_fill"></path>
                            </g>
                        </g>
                    </g>
                    <g transform="translate(16.000000, 73.000000)" fill="#006D2C" fill-rule="nonzero" id="Vector" opacity="0.17">
                        <g transform="translate(10.000000, 3.000000)">
                            <g id="path47_fill-link" transform="translate(0.650000, 0.030000)">
                                <path d="M3.38629,6.77258 C5.25649,6.77258 6.77258,5.25649 6.77258,3.38629 C6.77258,1.51609 5.25649,0 3.38629,0 C1.51609,0 0,1.51609 0,3.38629 C0,5.25649 1.51609,6.77258 3.38629,6.77258 Z" id="path47_fill"></path>
                            </g>
                        </g>
                        <g>
                            <g id="path48_fill-link" transform="translate(0.320000, 0.150000)">
                                <path d="M2.87835,5.7567 C4.46801,5.7567 5.75669,4.46801 5.75669,2.87835 C5.75669,1.28868 4.46801,0 2.87835,0 C1.28868,0 0,1.28868 0,2.87835 C0,4.46801 1.28868,5.7567 2.87835,5.7567 Z" id="path48_fill"></path>
                            </g>
                        </g>
                        <g transform="translate(0.000000, 10.000000)">
                            <g id="path49_fill-link" transform="translate(0.830000, 0.310000)">
                                <path d="M2.20109,4.40218 C3.41672,4.40218 4.40218,3.41671 4.40218,2.20109 C4.40218,0.985458 3.41672,0 2.20109,0 C0.985461,0 0,0.985458 0,2.20109 C0,3.41671 0.985461,4.40218 2.20109,4.40218 Z" id="path49_fill"></path>
                            </g>
                        </g>
                    </g>
                    <g transform="translate(58.000000, 52.000000)" fill="#006D2C" fill-rule="nonzero" id="Vector" opacity="0.17">
                        <g transform="translate(8.000000, 5.000000)">
                            <g id="path50_fill-link" transform="translate(0.270000, 0.910000)">
                                <path d="M1.86246,3.72492 C2.89107,3.72492 3.72492,2.89107 3.72492,1.86246 C3.72492,0.833854 2.89107,0 1.86246,0 C0.833853,0 -2.58353e-06,0.833854 -2.58353e-06,1.86246 C-2.58353e-06,2.89107 0.833853,3.72492 1.86246,3.72492 Z" id="path50_fill"></path>
                            </g>
                        </g>
                        <g>
                            <g id="path51_fill-link" transform="translate(0.810000, 0.490000)">
                                <path d="M3.22985,4.06355 C5.09231,4.06355 6.61614,2.53972 6.61614,0.677258 C6.61614,0.507944 6.61614,0.169315 6.61614,6.45884e-07 C4.41505,6.45884e-07 2.04465,0.169314 0.0128745,0.507943 L0.0128745,0.677258 C-0.15644,2.53972 1.36739,4.06355 3.22985,4.06355 Z" id="path51_fill"></path>
                            </g>
                        </g>
                        <g transform="translate(13.000000, 0.000000)">
                            <g id="path52_fill-link" transform="translate(0.170000, 0.490000)">
                                <path d="M3.22985,4.06355 C5.09231,4.06355 6.61614,2.53972 6.61614,0.677258 L6.61614,0.507943 C4.41505,0.338628 2.21396,0.169315 0.0128732,6.45884e-07 C0.0128732,0.169315 0.0128732,0.338629 0.0128732,0.677258 C-0.156441,2.53972 1.36739,4.06355 3.22985,4.06355 Z" id="path52_fill"></path>
                            </g>
                        </g>
                    </g>
                    <g id="Vector" transform="translate(27.000000, 121.000000)" fill="#FDD835" fill-rule="nonzero">
                        <g id="path53_fill-link" transform="translate(0.390000, 0.340000)">
                            <path d="M9.75809,14.4583 C10.0967,22.2468 0.953733,29.8659 0.784419,26.9876 C0.784419,25.633 5.01728,21.7388 4.50934,13.9503 C4.00139,6.16187 -1.24736,1.42107 0.276475,0.405181 C3.66277,-1.96522 9.41946,6.50051 9.75809,14.4583 Z" id="path53_fill"></path>
                        </g>
                    </g>
                    <g id="Vector" transform="translate(100.000000, 121.000000)" fill="#FDD835" fill-rule="nonzero">
                        <g id="path54_fill-link" transform="translate(0.290000, 0.180000)">
                            <path d="M0.00917964,14.4523 C-0.329449,22.2407 8.81353,29.8599 8.98285,26.9816 C8.98285,25.627 4.74998,21.7328 5.25793,13.9443 C5.59656,6.15587 11.0146,1.41506 9.4908,0.399177 C6.10451,-1.97123 0.347809,6.66381 0.00917964,14.4523 Z" id="path54_fill"></path>
                        </g>
                    </g>
                    <g id="Group-2" transform="translate(158.000000, 0.000000)">
                        <g id="Vector" fill="#4C431E" fill-rule="nonzero">
                            <g id="path55_fill-link" transform="translate(0.730000, 0.680000)">
                                <path d="M5.41806,205.246 L5.41806,2.70903 C5.41806,1.21287 4.20519,0 2.70903,0 C1.21287,0 0,1.21287 0,2.70903 L0,205.246 C0,205.799 0.447715,206.246 1,206.246 L4.41806,206.246 C4.97034,206.246 5.41806,205.799 5.41806,205.246 Z" id="path55_fill"></path>
                            </g>
                        </g>
                        <g id="Group" transform="translate(4.000000, 1.000000)">
                            <g id="Vector">
                                <rect id="Flag1" x="0" y="0" fill="#493dad"></rect>
                                <rect id="Flag2" x="0" y="0"  fill="#6656E9"></rect>
                            </g>
                        </g>
                    </g>
                    <g id="Vector" transform="translate(10.000000, 36.000000)" fill="#E54323" fill-rule="nonzero">
                        <g id="path59_fill-link" transform="translate(0.060000, 0.240000)">
                            <path d="M57.059,0 C19.4712,0 2.87835,19.8098 2.87835,19.8098 L1.61471e-07,30.3073 C9.3123,23.0268 36.2333,17.1008 57.2283,17.1008 C75.8529,17.1008 103.113,21.6723 112.594,28.2755 L110.054,17.778 C110.224,17.778 89.906,0 57.059,0 Z" id="path59_fill"></path>
                        </g>
                    </g>
                    <g id="Vector" transform="translate(8.000000, 41.000000)" fill="#FF5722" fill-rule="nonzero">
                        <g id="path60_fill-link" transform="translate(0.870000, 0.490000)">
                            <path d="M117.166,40.6355 C117.166,40.6355 100.065,10.4975 58.4135,10.4975 C15.069,10.4975 -3.22942e-07,40.6355 -3.22942e-07,40.6355 L-3.22942e-07,26.921 C-3.22942e-07,26.921 9.98956,6.45884e-07 58.4135,6.45884e-07 C105.483,6.45884e-07 117.166,26.921 117.166,26.921 L117.166,40.6355 Z" id="path60_fill"></path>
                        </g>
                    </g>
                    <g id="Vector" transform="translate(59.000000, 2.000000)" fill="#E54323" fill-rule="nonzero">
                        <g id="path61_fill-link" transform="translate(0.160000, 0.720000)">
                            <path d="M7.28053,14.561 C11.3014,14.561 14.561,11.3014 14.561,7.28052 C14.561,3.2596 11.3014,0 7.28053,0 C3.2596,0 2.58353e-06,3.2596 2.58353e-06,7.28052 C2.58353e-06,11.3014 3.2596,14.561 7.28053,14.561 Z" id="path61_fill"></path>
                        </g>
                    </g>
                    <g transform="translate(21.000000, 23.000000)" fill-rule="nonzero" id="Vector">
                        <g opacity="0.77" transform="translate(13.000000, 28.000000)" fill="#5E56F4">
                            <g id="path62_fill-link" transform="translate(0.960000, 0.660000)">
                                <path d="M1.338628,1.00000076 C1.338628,1.00000076 1.16931465,1.00000076 1.00000129,1.00000076 C1.00000129,1.00000076 1.16931465,1.00000076 1.338628,1.00000076 Z" id="path62_fill"></path>
                            </g>
                        </g>
                        <g opacity="0.77" transform="translate(13.000000, 28.000000)" fill="#5E56F4">
                            <g id="path63_fill-link" transform="translate(0.290000, 0.660000)">
                                <path d="M1.677259,1.00000076 C1.507945,1.00000076 1.169313,1.00000076 0.999998708,1.00000076 C1.169313,1.00000076 1.33862885,1.00000076 1.677259,1.00000076 Z" id="path63_fill"></path>
                            </g>
                        </g>
                        <g opacity="0.77" transform="translate(1.000000, 2.000000)" fill="#5E56F4">
                            <g id="path64_fill-link" transform="translate(0.490000, 0.740000)">
                                <path d="M13.817,10.4975 L17.5419,3.22942e-07 C10.0921,0.677258 4.84335,1.52383 3.99677,2.70903 C-2.94512,13.5452 -0.405403,23.0268 8.22964,25.9051 L8.56826,25.2279 C4.84335,22.3495 7.38306,15.5769 13.817,10.4975 Z" id="path64_fill"></path>
                            </g>
                        </g>
                        <g opacity="0.77" transform="translate(16.000000, 2.000000)" fill="#5E56F4">
                            <g id="path65_fill-link" transform="translate(0.830000, 0.570000)">
                                <path d="M1.52383,8.46573 L4.57149,-3.22942e-07 C4.06355,-3.22942e-07 3.72492,-3.22942e-07 3.38629,0.169315 L-1.29177e-06,9.65093 C0.338628,9.14298 0.846574,8.80436 1.52383,8.46573 Z" id="path65_fill"></path>
                            </g>
                        </g>
                        <g opacity="0.77" transform="translate(21.000000, 1.000000)" fill="#5E56F4">
                            <g id="path66_fill-link" transform="translate(0.060000, 0.880000)">
                                <path d="M1.1852,7.12431 C9.3123,3.5687 52.6568,0.351724 63.6623,2.3835 C54.0113,0.0130951 22.8575,-0.664163 2.53972,0.690353 L-1.29177e-06,7.80156 C0.338628,7.46293 0.677258,7.29362 1.1852,7.12431 Z" id="path66_fill"></path>
                            </g>
                        </g>
                        <g opacity="0.77" transform="translate(10.000000, 27.000000)" fill="#5E56F4">
                            <g id="path67_fill-link" transform="translate(0.560000, 0.650000)">
                                <path d="M0.169316,1.00000065 L6.45884e-07,1.33862932 C0.33863,1.507942 0.677257,1.507944 1.1852,1.677258 L1.1852,1.507943 C0.846571,1.33862932 0.507945,1.169315 0.169316,1.00000065 Z" id="path67_fill"></path>
                            </g>
                        </g>
                        <g opacity="0.77" transform="translate(12.000000, 28.000000)" fill="#5E56F4">
                            <g id="path68_fill-link" transform="translate(0.780000, 0.660000)">
                                <path d="M1,1.00000076 C1.169315,1.00000076 1.338628,1.00000076 1.507942,1.00000076 C1.169313,1.00000076 1.169315,1.00000076 1,1.00000076 Z" id="path68_fill"></path>
                            </g>
                        </g>
                        <g opacity="0.9" transform="translate(46.000000, 5.000000)" fill="#5E56F4">
                            <g id="path69_fill-link" transform="translate(0.290000, 0.110000)">
                                <path d="M41.1434,0.338628 C41.1434,0.169314 40.9741,0.169316 40.8048,1.29177e-06 C45.3763,10.4975 37.2492,18.1167 27.0903,20.3177 C20.8257,21.6723 8.97367,18.7939 5.92601,14.2224 C4.91012,12.5293 4.57149,11.1748 0.169313,11.1748 C0.169313,11.1748 0.169316,11.1748 1.29177e-06,11.1748 C4.23286,11.1748 4.57149,12.5293 5.58738,14.2224 C8.63504,18.7939 18.1167,24.5506 30.9846,24.5506 C44.1911,24.5506 48.2546,13.8838 41.1434,0.338628 Z" id="path69_fill"></path>
                            </g>
                        </g>
                        <g opacity="0.77" transform="translate(15.000000, 16.000000)" fill="#5E56F4">
                            <g id="path70_fill-link" transform="translate(0.300000, 0.290000)">
                                <path d="M25.3972,3.04766 C22.3495,7.61915 12.8679,13.3758 -6.45884e-07,13.3758 C-6.45884e-07,13.3758 -6.45884e-07,13.3758 0.169315,13.3758 C13.0372,13.3758 22.5188,7.61915 25.5665,3.04766 C26.5824,1.35452 26.921,-1.29177e-06 31.1539,-1.29177e-06 C31.1539,-1.29177e-06 31.1539,-1.29177e-06 30.9846,-1.29177e-06 C26.7517,-1.29177e-06 26.5824,1.35452 25.3972,3.04766 Z" id="path70_fill"></path>
                            </g>
                        </g>
                        <g opacity="0.77" transform="translate(10.000000, 11.000000)" fill="#5E56F4">
                            <g id="path71_fill-link" transform="translate(0.730000, 0.040000)">
                                <path d="M5.92601,1.01589 L1.29177e-06,17.6087 C0.33863,17.778 0.677257,17.9473 1.01589,18.1167 L7.61915,1.29177e-06 C6.9419,0.33863 6.43395,0.677257 5.92601,1.01589 Z" id="path71_fill"></path>
                            </g>
                        </g>
                        <g opacity="0.77" transform="translate(10.000000, 11.000000)" fill="#5E56F4">
                            <g id="path71_fill-link" transform="translate(0.730000, 0.040000)">
                                <path d="M5.92601,1.01589 L1.29177e-06,17.6087 C0.33863,17.778 0.677257,17.9473 1.01589,18.1167 L7.61915,1.29177e-06 C6.9419,0.33863 6.43395,0.677257 5.92601,1.01589 Z" id="path71_fill"></path>
                            </g>
                        </g>
                        <g opacity="0.77" transform="translate(13.000000, 3.000000)" fill="#5E56F4">
                            <g id="path72_fill-link" transform="translate(0.780000, 0.530000)">
                                <path d="M38.6037,15.8028 C41.6514,20.3743 53.5034,23.422 59.768,21.8981 C69.9269,19.6971 78.054,12.0779 73.4825,1.5804 C72.9746,1.24177 72.128,0.903145 70.9428,0.564516 C59.768,-1.29794 16.5928,1.74972 8.46573,5.30532 C8.1271,5.47464 7.61915,5.64395 7.28052,5.81327 L0,25.9617 C0.169315,25.9617 0.338628,25.9617 0.507942,25.9617 C0.677257,25.9617 1.01589,25.9617 1.1852,25.9617 C1.35452,25.9617 1.52383,25.9617 1.69315,25.9617 C14.561,25.9617 24.0427,20.205 27.0903,15.6335 C28.1062,13.9404 28.4448,12.5858 32.847,12.5858 C32.847,12.5858 32.847,12.5858 33.0163,12.5858 C33.0163,12.5858 33.0163,12.5858 33.1856,12.5858 C37.2492,12.7552 37.4185,14.1097 38.6037,15.8028 Z" id="path72_fill"></path>
                            </g>
                        </g>
                        <g opacity="0.77" transform="translate(13.000000, 3.000000)" fill="#5E56F4">
                            <g id="path72_fill-link" transform="translate(0.780000, 0.530000)">
                                <path d="M38.6037,15.8028 C41.6514,20.3743 53.5034,23.422 59.768,21.8981 C69.9269,19.6971 78.054,12.0779 73.4825,1.5804 C72.9746,1.24177 72.128,0.903145 70.9428,0.564516 C59.768,-1.29794 16.5928,1.74972 8.46573,5.30532 C8.1271,5.47464 7.61915,5.64395 7.28052,5.81327 L0,25.9617 C0.169315,25.9617 0.338628,25.9617 0.507942,25.9617 C0.677257,25.9617 1.01589,25.9617 1.1852,25.9617 C1.35452,25.9617 1.52383,25.9617 1.69315,25.9617 C14.561,25.9617 24.0427,20.205 27.0903,15.6335 C28.1062,13.9404 28.4448,12.5858 32.847,12.5858 C32.847,12.5858 32.847,12.5858 33.0163,12.5858 C33.0163,12.5858 33.0163,12.5858 33.1856,12.5858 C37.2492,12.7552 37.4185,14.1097 38.6037,15.8028 Z" id="path72_fill"></path>
                            </g>
                        </g>
                        <g opacity="0.77" transform="translate(8.000000, 13.000000)" fill="#5E56F4">
                            <g id="path73_fill-link" transform="translate(0.270000, 0.240000)">
                                <path d="M1.61502,14.8997 L7.03309,0 C0.599136,5.07944 -1.94058,11.852 1.61502,14.8997 Z" id="path73_fill"></path>
                            </g>
                        </g>
                        <g opacity="0.77" transform="translate(8.000000, 13.000000)" fill="#5E56F4">
                            <g id="path73_fill-link" transform="translate(0.270000, 0.240000)">
                                <path d="M1.61502,14.8997 L7.03309,0 C0.599136,5.07944 -1.94058,11.852 1.61502,14.8997 Z" id="path73_fill"></path>
                            </g>
                        </g>
                        <g transform="translate(9.000000, 28.000000)" fill="#CCCCFF">
                            <g id="path74_fill-link" transform="translate(0.550000, 0.140000)">
                                <path d="M0.33863,-1.29177e-06 L0,0.677259 C0.338629,0.846574 0.677259,0.846572 1.01589,1.01589 L1.1852,0.677259 C0.846574,0.33863 0.507945,0.169313 0.33863,-1.29177e-06 Z" id="path74_fill"></path>
                            </g>
                        </g>
                        <g transform="translate(15.000000, 2.000000)" fill="#CCCCFF">
                            <g id="path75_fill-link" transform="translate(0.300000, 0.570000)">
                                <path d="M1.35452,9.48161 L4.74081,-3.22942e-07 C4.40218,-3.22942e-07 4.06355,-3.22942e-07 3.72492,0.169315 L-6.45884e-07,10.6668 C0.338628,10.1589 0.846574,9.82024 1.35452,9.48161 Z" id="path75_fill"></path>
                            </g>
                        </g>
                        <g transform="translate(9.000000, 12.000000)" fill="#CCCCFF">
                            <g id="path76_fill-link" transform="translate(0.880000, 0.050000)">
                                <path d="M5.41806,1.1852 L1.29177e-06,16.0849 C0.169316,16.2542 0.507945,16.4235 0.846574,16.5928 L6.77258,-1.29177e-06 C6.26464,0.338628 5.75669,0.677258 5.41806,1.1852 Z" id="path76_fill"></path>
                            </g>
                        </g>
                        <g transform="translate(18.000000, 2.000000)" fill="#CCCCFF">
                            <g id="path77_fill-link" transform="translate(0.180000, 0.400000)">
                                <path d="M2.70903,7.11121 L5.24875,6.45884e-07 C4.57149,6.45884e-07 3.72492,0.169314 3.04766,0.169314 L6.45884e-07,8.63504 C1.01589,8.1271 1.86246,7.61915 2.70903,7.11121 Z" id="path77_fill"></path>
                            </g>
                        </g>
                        <g transform="translate(11.000000, 28.000000)" fill="#CCCCFF">
                            <g id="path78_fill-link" transform="translate(0.750000, 0.160000)">
                                <path d="M-1.29177e-06,0.999999354 L-1.29177e-06,1.169315 C0.677257,1.338629 1.35452,1.33863 2.03177,1.507945 C1.1852,1.33863 0.507942,1.169314 -1.29177e-06,0.999999354 Z" id="path78_fill"></path>
                            </g>
                        </g>
                        <g transform="translate(11.000000, 9.000000)" fill="#CCCCFF">
                            <g id="path79_fill-link" transform="translate(0.750000, 0.520000)">
                                <path d="M-1.29177e-06,19.6405 C0.507942,19.8098 1.1852,19.9791 2.03177,20.1484 L9.3123,-1.29177e-06 C8.29641,0.507942 7.44984,1.01589 6.60327,1.52383 L-1.29177e-06,19.6405 Z" id="path79_fill"></path>
                            </g>
                        </g>
                        <g fill="#CCCCFF">
                            <g id="path80_stroke-link" transform="translate(0.990000, 0.880000)">
                                <path d="M86.945,4.73801 L86.5243,4.73801 L86.5243,4.84068 L86.5716,4.93181 L86.945,4.73801 Z M86.6064,4.39938 L86.9039,4.1019 L86.8744,4.07245 L86.8397,4.04934 L86.6064,4.39938 Z M84.0667,3.3835 L84.1822,2.97899 L84.1747,2.97682 L84.167,2.97494 L84.0667,3.3835 Z M22.9441,1.690353 L22.9441,2.11105 L22.9581,2.11105 L22.9721,2.11012 L22.9441,1.690353 Z M19.5578,2.02898 L19.5578,2.44968 L19.6571,2.44968 L19.746,2.40527 L19.5578,2.02898 Z M18.5419,2.1983 L18.58,2.61727 L18.6591,2.61008 L18.7301,2.57458 L18.5419,2.1983 Z M4.99677,4.90733 L4.65444,4.6628 L4.64826,4.67145 L4.64253,4.68039 L4.99677,4.90733 Z M9.22964,28.1034 L9.41778,27.7271 L9.39104,27.7138 L9.36267,27.7043 L9.22964,28.1034 Z M11.4307,28.7807 L11.2977,29.1798 L11.313,29.1849 L11.3287,29.1888 L11.4307,28.7807 Z M13.4625,29.1193 L13.3605,29.5274 L13.4107,29.54 L13.4625,29.54 L13.4625,29.1193 Z M40.7221,18.7911 L41.0722,19.0245 L41.0777,19.0162 L41.0829,19.0076 L40.7221,18.7911 Z M51.8969,18.7911 L51.5361,19.0076 L51.5413,19.0162 L51.5468,19.0245 L51.8969,18.7911 Z M77.2941,29.1193 L77.2941,29.5402 L77.3053,29.5399 L77.2941,29.1193 Z M87.3657,4.73801 C87.3603,4.6283 87.3102,4.47482 87.2606,4.39623 C87.2042,4.32322 87.1192,4.25027 87.0725,4.21866 C86.9868,4.1625 86.937,4.14275 86.9039,4.1019 L86.3089,4.69686 C86.3731,4.75953 86.448,4.81689 86.4974,4.84996 C86.5229,4.86693 86.5482,4.88269 86.5667,4.89414 C86.5853,4.9056 86.5963,4.91234 86.6058,4.91874 C86.6252,4.93166 86.5986,4.91776 86.5713,4.87874 C86.5357,4.82793 86.5243,4.77364 86.5243,4.73801 L87.3657,4.73801 Z M86.8397,4.04934 C86.2749,3.6728 85.3757,3.31998 84.1822,2.97899 L83.9511,3.78801 C85.128,4.12428 85.9219,4.44871 86.373,4.74943 L86.8397,4.04934 Z M84.167,2.97494 C79.2907,1.777246 69.0449,1.0156678 57.5162,0.71952 C45.9735,0.423089 33.0862,0.592729 22.9161,1.270585 L22.9721,2.11012 C33.1198,1.433461 45.9683,1.264472 57.4946,1.560642 C69.0351,1.857095 79.1917,2.61935 83.9663,3.79206 L84.167,2.97494 Z M22.9441,1.269653 C22.5822,1.270297 22.1781,1.314555 21.7971,1.356884 C21.4162,1.399213 21.0584,1.439612 20.743,1.438968 L20.743,2.28037 C21.1049,2.27972 21.5091,2.23547 21.89,2.19314 C22.271,2.15081 22.6287,2.11041 22.9441,2.11105 L22.9441,1.269653 Z M20.743,1.438968 C20.2573,1.438968 19.813,1.431024 19.3697,1.652696 L19.746,2.40527 C19.9799,2.28831 20.2128,2.28037 20.743,2.28037 L20.743,1.438968 Z M19.5578,1.608282 C19.2192,1.608282 18.7839,1.619537 18.3538,1.822012 L18.7301,2.57458 C18.9772,2.43843 19.2192,2.44968 19.5578,2.44968 L19.5578,1.608282 Z M18.5038,1.779325 C14.7729,2.11855 11.5782,2.50211 9.21492,2.94897 C8.02915,3.17346 7.0299,3.41954 6.28278,3.68253 C5.55407,3.93957 4.9498,4.2493 4.65444,4.6628 L5.33911,5.15186 C5.46704,4.97276 5.83632,4.73222 6.56266,4.47602 C7.27059,4.22578 8.20787,3.99566 9.37133,3.7757 C11.7066,3.33366 14.8611,2.95531 18.58,2.61727 L18.5038,1.779325 Z M4.64253,4.68039 C1.13256,10.15937 -0.01559,15.3506 0.859909,19.5749 C1.739019,23.8166 4.647,27.0193 9.0966,28.5025 L9.36267,27.7043 C5.17723,26.3092 2.49784,23.3319 1.6838,19.4042 C0.866153,15.459 1.919092,10.49142 5.35102,5.13427 L4.64253,4.68039 Z M9.04149,28.4797 C9.25299,28.5826 9.46623,28.6385 9.63555,28.6809 C9.80486,28.7232 9.93025,28.752 10.05738,28.8183 L10.43367,28.0658 C10.22217,27.9628 10.00893,27.9069 9.83962,27.8646 C9.6703,27.8223 9.54491,27.7935 9.41778,27.7271 L9.04149,28.4797 Z M10.05738,28.8183 C10.4875,29.0208 10.85539,29.0266 11.2977,29.1798 L11.5638,28.3816 C10.99017,28.1961 10.68081,28.2019 10.43367,28.0658 L10.05738,28.8183 Z M11.3287,29.1888 C12.0566,29.3675 12.7338,29.3675 13.3605,29.5274 L13.5645,28.7112 C12.8366,28.5324 12.1594,28.5324 11.5328,28.3725 L11.3287,29.1888 Z M13.4625,29.54 C13.6318,29.54 13.8011,29.54 13.9704,29.54 L13.9704,28.6986 C13.8011,28.6986 13.6318,28.6986 13.4625,28.6986 L13.4625,29.54 Z M13.9704,29.54 C14.1398,29.54 14.4784,29.54 14.6477,29.54 L14.6477,28.6986 C14.4784,28.6986 14.1398,28.6986 13.9704,28.6986 L13.9704,29.54 Z M14.6477,29.54 C14.7324,29.54 14.817,29.54 14.8805,29.54 C14.9123,29.54 14.9387,29.54 14.9572,29.54 C14.9665,29.54 14.9738,29.54 14.9787,29.54 C14.9812,29.54 14.9831,29.54 14.9844,29.54 C14.985,29.54 14.9855,29.54 14.9858,29.54 C14.986,29.54 14.9861,29.54 14.9862,29.54 C14.9862,29.54 14.9863,29.54 14.9863,29.54 C14.9863,29.54 14.9863,29.54 14.9863,29.54 C14.9863,29.54 14.9863,29.54 14.9863,29.54 C14.9863,29.54 14.9863,29.54 14.9863,29.1193 C14.9863,28.6986 14.9863,28.6986 14.9863,28.6986 C14.9863,28.6986 14.9863,28.6986 14.9863,28.6986 C14.9863,28.6986 14.9863,28.6986 14.9863,28.6986 C14.9863,28.6986 14.9862,28.6986 14.9862,28.6986 C14.9861,28.6986 14.986,28.6986 14.9858,28.6986 C14.9855,28.6986 14.985,28.6986 14.9844,28.6986 C14.9831,28.6986 14.9812,28.6986 14.9787,28.6986 C14.9738,28.6986 14.9665,28.6986 14.9572,28.6986 C14.9387,28.6986 14.9123,28.6986 14.8805,28.6986 C14.817,28.6986 14.7324,28.6986 14.6477,28.6986 L14.6477,29.54 Z M14.9863,29.1193 C14.9863,29.54 14.9863,29.54 14.9863,29.54 L14.9863,29.54 C14.9863,29.54 14.9863,29.54 14.9863,29.54 C14.9863,29.54 14.9864,29.54 14.9864,29.54 C14.9864,29.54 14.9865,29.54 14.9867,29.54 C14.987,29.54 14.9877,29.54 14.989,29.54 C14.9916,29.54 14.9969,29.54 15.0075,29.54 C15.0287,29.54 15.071,29.54 15.1556,29.54 L15.1556,28.6986 C15.071,28.6986 15.0287,28.6986 15.0075,28.6986 C14.9969,28.6986 14.9916,28.6986 14.989,28.6986 C14.9877,28.6986 14.987,28.6986 14.9867,28.6986 C14.9865,28.6986 14.9864,28.6986 14.9864,28.6986 C14.9864,28.6986 14.9863,28.6986 14.9863,28.6986 C14.9863,28.6986 14.9863,28.6986 14.9863,28.6986 L14.9863,28.6986 C14.9863,28.6986 14.9863,28.6986 14.9863,29.1193 Z M15.1556,29.1193 C15.1556,29.54 15.1556,29.54 15.1556,29.54 C15.1556,29.54 15.1556,29.54 15.1556,29.54 C15.1556,29.54 15.1556,29.54 15.1556,29.54 C15.1557,29.54 15.1557,29.54 15.1557,29.54 C15.1557,29.54 15.1558,29.54 15.156,29.54 C15.1563,29.54 15.157,29.54 15.1583,29.54 C15.1609,29.54 15.1662,29.54 15.1768,29.54 C15.198,29.54 15.2403,29.54 15.325,29.54 L15.325,28.6986 C15.2403,28.6986 15.198,28.6986 15.1768,28.6986 C15.1662,28.6986 15.1609,28.6986 15.1583,28.6986 C15.157,28.6986 15.1563,28.6986 15.156,28.6986 C15.1558,28.6986 15.1557,28.6986 15.1557,28.6986 C15.1557,28.6986 15.1557,28.6986 15.1556,28.6986 C15.1556,28.6986 15.1556,28.6986 15.1556,28.6986 C15.1556,28.6986 15.1556,28.6986 15.1556,28.6986 C15.1556,28.6986 15.1556,28.6986 15.1556,29.1193 Z M15.325,29.54 C28.2937,29.54 37.9267,23.7426 41.0722,19.0245 L40.3721,18.5578 C37.4222,22.9826 28.092,28.6986 15.325,28.6986 L15.325,29.54 Z M41.0829,19.0076 C41.6248,18.1044 41.9067,17.4556 42.5603,16.9701 C43.1934,16.4998 44.2267,16.1642 46.3095,16.1642 L46.3095,15.3228 C44.1594,15.3228 42.907,15.6644 42.0586,16.2946 C41.2307,16.9097 40.8354,17.7847 40.3614,18.5747 L41.0829,19.0076 Z M46.3095,16.1642 C48.3923,16.1642 49.4256,16.4998 50.0587,16.9701 C50.7123,17.4556 50.9943,18.1044 51.5361,19.0076 L52.2576,18.5747 C51.7836,17.7847 51.3883,16.9097 50.5604,16.2946 C49.712,15.6644 48.4596,15.3228 46.3095,15.3228 L46.3095,16.1642 Z M51.5468,19.0245 C54.6923,23.7426 64.3253,29.54 77.2941,29.54 L77.2941,28.6986 C64.527,28.6986 55.1968,22.9826 52.2469,18.5578 L51.5468,19.0245 Z M77.3053,29.5399 C83.78,29.3672 88.1083,26.5462 89.8771,21.9693 C91.6312,17.4306 90.8179,11.2872 87.3184,4.54422 L86.5716,4.93181 C90.014,11.5647 90.7245,17.4426 89.0923,21.666 C87.4749,25.8511 83.5067,28.5328 77.2829,28.6988 L77.3053,29.5399 Z" id="path80_stroke"></path>
                            </g>
                        </g>
                    </g>
                    <g transform="translate(82.000000, 42.000000)" fill-rule="nonzero" id="Vector">
                        <g fill="#00993E">
                            <g id="path81_fill-link" transform="translate(0.190000, 0.340000)">
                                <path d="M15.7462,31.4925 C24.4427,31.4925 31.4925,24.4427 31.4925,15.7463 C31.4925,7.04984 24.4427,0 15.7462,0 C7.04984,0 0,7.04984 0,15.7463 C0,24.4427 7.04984,31.4925 15.7462,31.4925 Z" id="path81_fill"></path>
                            </g>
                        </g>
                        <g fill="#2ECC71">
                            <g id="path82_fill-link" transform="translate(0.360000, 0.000000)">
                                <path d="M15.2383,30.4766 C23.6542,30.4766 30.4766,23.6542 30.4766,15.2383 C30.4766,6.82242 23.6542,0 15.2383,0 C6.82242,0 -2.58353e-06,6.82242 -2.58353e-06,15.2383 C-2.58353e-06,23.6542 6.82242,30.4766 15.2383,30.4766 Z" id="path82_fill"></path>
                            </g>
                        </g>
                        <g transform="translate(3.000000, 2.000000)" fill="url(#radialGradient-10)">
                            <g id="path83_fill-link" transform="translate(0.070000, 0.710000)">
                                <path d="M12.5293,25.0585 C19.449,25.0585 25.0585,19.449 25.0585,12.5293 C25.0585,5.60955 19.449,0 12.5293,0 C5.60954,0 0,5.60955 0,12.5293 C0,19.449 5.60954,25.0585 12.5293,25.0585 Z" id="path83_fill"></path>
                            </g>
                        </g>
                        <g transform="translate(9.000000, 11.000000)">
                            <g fill="#2A5351">
                                <g id="path84_fill-link" transform="translate(0.330000, 0.850000)">
                                    <path d="M6.26463,-6.45884e-07 C2.87834,-6.45884e-07 0.169317,2.53972 2.58353e-06,5.92601 L3.72492,6.9419 L0.507945,8.80435 C1.52383,11.1748 3.72492,12.6986 6.43395,12.6986 C9.98956,12.6986 12.8679,9.82024 12.8679,6.26463 C12.6986,2.87834 9.82024,-6.45884e-07 6.26463,-6.45884e-07 Z" id="path84_fill"></path>
                                </g>
                            </g>
                            <g transform="translate(0.000000, 6.000000)" fill="#FFFFFF">
                                <g id="path85_fill-link" transform="translate(0.330000, 0.770000)">
                                    <path d="M2.58353e-06,2.58353e-06 C2.58353e-06,0.169317 2.58353e-06,0.33863 2.58353e-06,0.507945 C2.58353e-06,1.35452 0.169316,2.20109 0.507945,2.87834 L3.72492,1.01589 L2.58353e-06,2.58353e-06 Z" id="path85_fill"></path>
                                </g>
                            </g>
                        </g>
                    </g>
                    <g transform="translate(22.000000, 42.000000)" fill-rule="nonzero" id="Vector">
                        <g fill="#00993E">
                            <g id="path86_fill-link" transform="translate(0.930000, 0.340000)">
                                <path d="M15.7462,31.4925 C24.4427,31.4925 31.4925,24.4427 31.4925,15.7463 C31.4925,7.04984 24.4427,0 15.7462,0 C7.04984,0 0,7.04984 0,15.7463 C0,24.4427 7.04984,31.4925 15.7462,31.4925 Z" id="path86_fill"></path>
                            </g>
                        </g>
                        <g transform="translate(1.000000, 0.000000)" fill="#2ECC71">
                            <g id="path87_fill-link" transform="translate(0.770000, 0.000000)">
                                <path d="M15.2383,30.4766 C23.6542,30.4766 30.4766,23.6542 30.4766,15.2383 C30.4766,6.82242 23.6542,0 15.2383,0 C6.82242,0 0,6.82242 0,15.2383 C0,23.6542 6.82242,30.4766 15.2383,30.4766 Z" id="path87_fill"></path>
                            </g>
                        </g>
                        <g transform="translate(4.000000, 2.000000)" fill="url(#radialGradient-12)">
                            <g id="path88_fill-link" transform="translate(0.480000, 0.710000)">
                                <path d="M12.5293,25.0585 C19.449,25.0585 25.0585,19.449 25.0585,12.5293 C25.0585,5.60955 19.449,0 12.5293,0 C5.60955,0 0,5.60955 0,12.5293 C0,19.449 5.60955,25.0585 12.5293,25.0585 Z" id="path88_fill"></path>
                            </g>
                        </g>
                        <g transform="translate(10.000000, 11.000000)">
                            <g fill="#2A5351">
                                <g id="path89_fill-link" transform="translate(0.750000, 0.850000)">
                                    <path d="M6.26464,-6.45884e-07 C2.87835,-6.45884e-07 0.169313,2.53972 -1.29177e-06,5.92601 L3.72492,6.9419 L0.338629,8.80435 C1.35452,11.1748 3.5556,12.6986 6.26464,12.6986 C9.82024,12.6986 12.6986,9.82024 12.6986,6.26463 C12.6986,2.87834 9.82024,-6.45884e-07 6.26464,-6.45884e-07 Z" id="path89_fill"></path>
                                </g>
                            </g>
                            <g transform="translate(0.000000, 6.000000)" fill="#FFFFFF">
                                <g id="path90_fill-link" transform="translate(0.750000, 0.770000)">
                                    <path d="M-1.29177e-06,2.58353e-06 C-1.29177e-06,0.169317 -1.29177e-06,0.33863 -1.29177e-06,0.507945 C-1.29177e-06,1.35452 0.169315,2.20109 0.507944,2.87834 L3.72492,1.01589 L-1.29177e-06,2.58353e-06 Z" id="path90_fill"></path>
                                </g>
                            </g>
                        </g>
                    </g>
                </g>
            </g>
            <g id="Vector-3" transform="translate(24.000000, 252.000000)" fill="#F2F9FF" fill-rule="nonzero">
                <g id="path94_fill-link" transform="translate(0.930000, 0.580000)">
                    <path d="M19.4436,29.5709 L1.00904,50.8312 C-0.9777,53.1225 1.30159,56.5781 4.19,55.6538 L12.9478,52.8513 L12.9729,52.8434 L28.8538,47.9148 C29.2508,47.7916 29.6178,47.5873 29.9317,47.3147 L50.0634,29.832 C50.7046,29.2752 51.5517,29.0162 52.3946,29.1193 L87.8031,33.4498 C91.1019,33.8532 92.5117,29.39 89.5797,27.8253 L67.4634,16.0223 C67.2795,15.9241 67.1064,15.8071 66.9468,15.6731 L49.668,1.16551 C48.2943,0.01213 46.2222,0.31395 45.2346,1.81127 L30.0215,24.8764 C29.6548,25.4324 29.1135,25.8505 28.4829,26.0649 L20.7445,28.696 C20.2409,28.8672 19.792,29.1691 19.4436,29.5709 Z" id="path94_fill"></path>
                </g>
            </g>
            <g id="Vector-3.1" transform="translate(484.000000, 204.000000)" fill="#F2F9FF" fill-rule="nonzero">
                <g id="path95_fill-link" transform="translate(46.823086, 24.468877) rotate(4.449729) translate(-46.823086, -24.468877) translate(1.823076, 3.468872)">
                    <path d="M27.6676059,24.0713051 L15.6358033,14.6009031 C14.408303,13.6347029 12.6449027,13.7722029 11.5819025,14.9168032 L1.37930029,25.9037055 C-0.958800203,28.421406 2.08450044,32.2551068 5.06710107,30.5492065 L10.9613023,27.1778058 C11.7563025,26.7231057 12.7153027,26.6564056 13.5656029,26.9967057 L48.1948102,40.8565086 C49.2163104,41.2654087 50.3796107,41.0822087 51.2261108,40.3793085 L63.8549135,29.8924063 C64.4150136,29.4273062 65.1251138,29.1817062 65.8529139,29.2015062 L86.5766183,29.7642063 C90.1610191,29.8615063 90.8650192,24.7254052 87.3862185,23.855005 L57.3075121,16.3289035 C55.9300118,15.9842034 54.9828116,14.7210031 55.0379116,13.3021028 L55.4311117,3.18270067 C55.5550118,-0.00738000156 51.2720109,-1.15789025 49.7808105,1.66490035 L40.1623085,19.8717042 C39.8324084,20.4961043 39.2928083,20.9841044 38.6385082,21.2499045 L30.6520065,24.4935052 C29.6536063,24.8990053 28.514406,24.7378052 27.6676059,24.0713051 Z" id="path95_fill"></path>
                </g>
            </g>
            <g id="Vector-2" transform="translate(0.000000, 246.000000)" fill="#DFE8F0" fill-rule="nonzero">
                <g id="path96_stroke-link" transform="translate(0.360000, 0.750000)">
                    <path d="M0.494692,60.6194 C0.188603,60.8985 0.166703,61.3729 0.445776,61.679 C0.72485,61.9851 1.199219,62.007 1.505308,61.7279 L0.494692,60.6194 Z M133.649,44.5418 C134.016,44.7349 134.469,44.5943 134.663,44.2279 C134.856,43.8614 134.715,43.4078 134.349,43.2147 L133.649,44.5418 Z M129.052,40.4242 C128.686,40.2312 128.232,40.3717 128.039,40.7382 C127.846,41.1046 127.987,41.5582 128.353,41.7513 L129.052,40.4242 Z M124.937,39.9512 C125.303,40.1443 125.757,40.0037 125.95,39.6373 C126.143,39.2708 126.002,38.8172 125.636,38.6241 L124.937,39.9512 Z M21.7084,43.3079 C22.0145,43.0289 22.0364,42.5545 21.7573,42.2484 C21.4782,41.9423 21.0039,41.9204 20.6978,42.1995 L21.7084,43.3079 Z M24.4994,38.7334 C24.1933,39.0125 24.1714,39.4869 24.4504,39.7929 C24.7295,40.099 25.2039,40.1209 25.51,39.8419 L24.4994,38.7334 Z M60.4558,5.48051 C60.1918,5.79975 60.2367,6.2725 60.5559,6.53643 C60.8751,6.80036 61.3479,6.75553 61.6118,6.43629 L60.4558,5.48051 Z M59.4221,9.08482 C59.6861,8.76558 59.6412,8.29283 59.322,8.0289 C59.0028,7.76497 58.53,7.8098 58.2661,8.12904 L59.4221,9.08482 Z M93.477,22.4603 L93.0028,23.0413 L93.477,22.4603 Z M68.2695,1.88511 L67.7952,2.46614 L68.2695,1.88511 Z M64.0603,2.29765 L64.6384,2.77554 L64.0603,2.29765 Z M46.7521,22.9229 L46.3826,22.2702 L46.7521,22.9229 Z M37.0272,28.4278 L37.3967,29.0805 L37.0272,28.4278 Z M36.4838,28.8216 L36.9891,29.3758 L36.4838,28.8216 Z M37.3967,29.0805 L47.1215,23.5756 L46.3826,22.2702 L36.6578,27.7751 L37.3967,29.0805 Z M67.7952,2.46614 L93.0028,23.0413 L93.9513,21.8793 L68.7437,1.30409 L67.7952,2.46614 Z M128.353,41.7513 L133.649,44.5418 L134.349,43.2147 L129.052,40.4242 L128.353,41.7513 Z M93.626,23.4539 L124.937,39.9512 L125.636,38.6241 L94.3252,22.1268 L93.626,23.4539 Z M1.505308,61.7279 L21.7084,43.3079 L20.6978,42.1995 L0.494692,60.6194 L1.505308,61.7279 Z M25.51,39.8419 L36.9891,29.3758 L35.9785,28.2674 L24.4994,38.7334 L25.51,39.8419 Z M61.6118,6.43629 L64.6384,2.77554 L63.4823,1.81976 L60.4558,5.48051 L61.6118,6.43629 Z M48.1644,22.7016 L59.4221,9.08482 L58.2661,8.12904 L47.0083,21.7458 L48.1644,22.7016 Z M93.0028,23.0413 C93.1871,23.1906 93.4166,23.3425 93.626,23.4539 L94.3252,22.1268 C94.1811,22.0519 94.0765,21.9827 93.9513,21.8793 L93.0028,23.0413 Z M68.7437,1.30409 C67.1464,0.00030299 64.7961,0.230652 63.4823,1.81976 L64.6384,2.77554 C65.4267,1.82207 66.8368,1.68386 67.7952,2.46614 L68.7437,1.30409 Z M47.1215,23.5756 C47.4979,23.359 47.8853,23.0343 48.1644,22.7016 L47.0083,21.7458 C46.8211,21.9772 46.6431,22.1264 46.3826,22.2702 L47.1215,23.5756 Z M36.6578,27.7751 C36.4265,27.9073 36.1762,28.0888 35.9785,28.2674 L36.9891,29.3758 C37.1231,29.2521 37.2374,29.1693 37.3967,29.0805 L36.6578,27.7751 Z" id="path96_stroke"></path>
                </g>
            </g>
            <g id="Vector-2.1" transform="translate(474.000000, 194.000000)" fill="#DFE8F0" fill-rule="nonzero">
                <g id="path97_stroke-link" transform="translate(0.140000, 0.670000)">
                    <path d="M0.489026,40.7445 C0.185775,41.0267 0.168674,41.5013 0.45083,41.8045 C0.732986,42.1078 1.207551,42.1249 1.510802,41.8427 L0.489026,40.7445 Z M122.487,47.0837 C122.835,47.3083 123.299,47.2082 123.523,46.8601 C123.748,46.512 123.648,46.0478 123.3,45.8233 L122.487,47.0837 Z M3.72739,39.7803 C4.03064,39.4982 4.04774,39.0236 3.76558,38.7203 C3.48343,38.4171 3.00886,38.4 2.70561,38.6821 L3.72739,39.7803 Z M4.97218,36.5732 C4.66893,36.8554 4.65183,37.33 4.93399,37.6332 C5.21614,37.9365 5.69071,37.9536 5.99396,37.6714 L4.97218,36.5732 Z M60.7961,6.48033 C60.5449,6.80963 60.6081,7.28027 60.9374,7.53154 C61.2667,7.78282 61.7373,7.71957 61.9886,7.39028 L60.7961,6.48033 Z M59.99,10.0095 C60.2413,9.68016 60.178,9.20952 59.8487,8.95824 C59.5194,8.70697 59.0488,8.77021 58.7975,9.09951 L59.99,10.0095 Z M119.928,43.6479 C119.58,43.4233 119.116,43.5234 118.891,43.8715 C118.667,44.2195 118.767,44.6837 119.115,44.9083 L119.928,43.6479 Z M116.503,43.2234 C116.851,43.448 117.315,43.3478 117.54,42.9998 C117.765,42.6517 117.664,42.1875 117.316,41.963 L116.503,43.2234 Z M93.8589,27.6349 L94.3937,27.1091 L93.8589,27.6349 Z M94.3716,28.0524 L93.965,28.6826 L94.3716,28.0524 Z M69.11,2.46659 L69.6448,1.94074 L69.11,2.46659 Z M64.586,2.75012 L63.9897,2.29514 L64.586,2.75012 Z M43.1876,30.7925 L42.5914,30.3375 L43.1876,30.7925 Z M26.4371,21.1572 L25.9639,21.7391 L26.4371,21.1572 Z M25.9639,21.7391 L38.4367,31.882 L39.3831,30.7182 L26.9103,20.5753 L25.9639,21.7391 Z M68.5752,2.99245 L93.3241,28.1608 L94.3937,27.1091 L69.6448,1.94074 L68.5752,2.99245 Z M1.510802,41.8427 L3.72739,39.7803 L2.70561,38.6821 L0.489026,40.7445 L1.510802,41.8427 Z M5.99396,37.6714 L23.0116,21.8375 L21.9899,20.7393 L4.97218,36.5732 L5.99396,37.6714 Z M61.9886,7.39028 L65.1822,3.20509 L63.9897,2.29514 L60.7961,6.48033 L61.9886,7.39028 Z M43.7838,31.2475 L59.99,10.0095 L58.7975,9.09951 L42.5914,30.3375 L43.7838,31.2475 Z M119.115,44.9083 L122.487,47.0837 L123.3,45.8233 L119.928,43.6479 L119.115,44.9083 Z M93.965,28.6826 L116.503,43.2234 L117.316,41.963 L94.7782,27.4222 L93.965,28.6826 Z M93.3241,28.1608 C93.5089,28.3471 93.7451,28.5394 93.965,28.6826 L94.7782,27.4222 C94.6266,27.3258 94.5188,27.238 94.3937,27.1091 L93.3241,28.1608 Z M69.6448,1.94074 C68.0446,0.313477 65.3742,0.480837 63.9897,2.29514 L65.1822,3.20509 C66.0129,2.11651 67.6152,2.01609 68.5752,2.99245 L69.6448,1.94074 Z M38.4367,31.882 C40.0788,33.2174 42.4999,32.93 43.7838,31.2475 L42.5914,30.3375 C41.821,31.3471 40.3683,31.5195 39.3831,30.7182 L38.4367,31.882 Z M26.9103,20.5753 C25.4588,19.395 23.3595,19.465 21.9899,20.7393 L23.0116,21.8375 C23.8334,21.0729 25.093,21.0309 25.9639,21.7391 L26.9103,20.5753 Z" id="path97_stroke"></path>
                </g>
            </g>
        </g>
    </g>
</svg>